<svg width="42" height="42" viewBox="0 0 42 42" fill="none" xmlns="http://www.w3.org/2000/svg">
<g clip-path="url(#clip0)">
<path d="M38.2237 1.01418V40.9858C38.2237 41.5463 37.7699 42 37.2095 42H4.86964C4.57484 42 4.30856 41.8741 4.12335 41.6728C3.95705 41.4931 3.85547 41.2511 3.85547 40.9858V1.01418C3.85547 0.748856 3.95673 0.506928 4.12335 0.327164C4.30856 0.125931 4.57484 0 4.86964 0H37.2095C37.7699 0 38.2237 0.453735 38.2237 1.01418Z" fill="#726470"/>
<path d="M17.8425 12.2521H24.4915V18.5493H17.8425V12.2521Z" fill="#FFD480"/>
<path d="M19.2996 22.9438H36.5588V35.5429H19.2996V22.9438Z" fill="#FF636F"/>
<path d="M26.2161 30.4919H36.7298V37.9539H26.2161V30.4919Z" fill="#FFD480"/>
<path d="M6.22241 4.04614H17.1938V13.9748H6.22241V4.04614Z" fill="#FFD480"/>
<path d="M24.4915 9.50281H36.8987V22.9438H24.4915V9.50281Z" fill="#F1EDF0"/>
<path d="M21.1169 4.04614H32.8423V13.9748H21.1169V4.04614Z" fill="#FF636F"/>
<path d="M7.16556 4.04611V37.9539L4.12335 41.6728C3.95705 41.4931 3.85547 41.2511 3.85547 40.9858V1.01416C3.85547 0.74884 3.95673 0.506912 4.12335 0.327148L7.16556 4.04611Z" fill="#5C545E"/>
<path d="M31.1379 4.04614H36.8987V13.9748H31.1379V4.04614Z" fill="#FFD480"/>
<path d="M34.9036 4.04611V37.9539L37.9458 41.6728C38.1121 41.4931 38.2137 41.2511 38.2137 40.9858V1.01416C38.2137 0.74884 38.1124 0.506912 37.9458 0.327148L34.9036 4.04611Z" fill="#5C545E"/>
<path d="M14.5042 4.04614H22.955V13.9748H14.5042V4.04614Z" fill="#A5CDFF"/>
<path d="M21.1169 4.04614H23.6522V13.9748H21.1169V4.04614Z" fill="#FF485A"/>
<path d="M7.16553 13.9748H11.1982V37.9539H7.16553V13.9748Z" fill="white"/>
<path d="M17.8425 18.5493H24.4915V29.2022H17.8425V18.5493Z" fill="white"/>
<path d="M11.1982 13.9748H17.8425V27.1773H11.1982V13.9748Z" fill="#F1EDF0"/>
<path d="M11.1982 22.9438H26.216V37.9539H11.1982V22.9438Z" fill="#A5CDFF"/>
<path d="M11.1982 22.9438H13.7338V37.9539H11.1982V22.9438Z" fill="#8CB4EB"/>
</g>
<defs>
<clipPath id="clip0">
<rect width="42" height="42" fill="white"/>
</clipPath>
</defs>
</svg>
