<svg width="42" height="42" viewBox="0 0 42 42" fill="none" xmlns="http://www.w3.org/2000/svg">
<g clip-path="url(#clip0)">
<path d="M41.5079 16.4391L35.8723 35.7082C35.2571 36.2988 34.5926 36.8648 33.9281 37.4062C30.3598 40.1625 25.848 42 21.0001 42C16.0782 42 11.468 40.1133 7.89977 37.2586L0.246094 17.8664C0.566016 15.7745 1.15664 13.8058 2.04266 11.9848L11.222 2.41164C14.1259 0.885937 17.5056 0 21.0001 0C24.1502 0 27.2098 0.71359 29.8924 1.96875L40.6713 13.6336C40.6957 13.6829 40.7204 13.7566 40.7204 13.8059C41.0403 14.6671 41.3109 15.5531 41.5079 16.4391Z" fill="#00ABE9"/>
<path d="M41.5078 16.4391L35.8723 35.7082C35.257 36.2988 34.5925 36.8648 33.928 37.4062C30.3598 40.1625 25.848 42 21 42V0C24.1501 0 27.2098 0.71359 29.8923 1.96875L40.6712 13.6336C40.6956 13.6829 40.7203 13.7566 40.7203 13.8059C41.0402 14.6671 41.3109 15.5531 41.5078 16.4391Z" fill="#0095FF"/>
<path d="M32.2825 17.1845C31.1506 16.6185 30.0811 16.0838 29.1415 16.0838C25.9595 16.0838 25.45 16.3758 25.45 17.3143C25.45 19.5673 24.2015 20.3688 23.4554 20.8482C22.8389 21.2448 22.8149 21.2592 22.9639 21.9886C23.1213 22.754 23.4326 23.7417 24.0225 24.1023C24.6846 24.5072 25.8142 24.1924 26.9113 23.8872C27.6911 23.6709 28.4266 23.4666 29.1415 23.4666C32.0831 23.4666 32.7993 26.5332 33.1046 27.8417C34.5282 33.9409 34.9573 35.3877 35.8722 35.6963C39.6563 31.9091 42.0001 26.6822 42.0001 20.918C42.0001 19.3809 41.8224 17.8863 41.5062 16.4427C40.1338 17.5692 38.3126 18.5448 36.5243 18.5448C35.003 18.5447 33.62 17.8526 32.2825 17.1845Z" fill="#00CCB2"/>
<path d="M40.671 13.6335H34.0511C32.3284 13.6335 31.4179 12.6984 30.7287 12.034C30.1381 11.4187 29.8428 11.1726 29.1292 11.1726C28.4401 11.1726 28.1448 11.4187 27.5542 12.034C26.8897 12.6984 25.9545 13.6335 24.2073 13.6335C23.0999 13.6335 21.812 13.6335 20.9998 13.1166C20.6553 12.9198 20.3846 12.6245 20.2123 12.2061C19.8678 11.3694 20.0893 10.4343 20.9998 9.15452C21.5167 8.44093 22.3616 7.57952 23.3458 6.59523C24.0596 5.90608 25.2655 5.4385 26.4466 4.99554C27.0619 4.74952 27.997 4.40491 28.2186 4.20804C28.8338 3.4207 29.3259 2.75616 29.7197 2.16554C29.7935 2.09163 29.8181 2.04241 29.892 1.96858C30.6303 2.31311 31.3685 2.70686 32.0576 3.14975C35.2076 5.09414 37.8162 7.875 39.5635 11.1726C39.9819 11.9602 40.3511 12.7723 40.671 13.6335Z" fill="#00DDC1"/>
<path d="M11.6209 3.22875C11.4809 2.94919 11.3435 2.67372 11.2152 2.40294C10.4841 2.78758 9.7771 3.20955 9.10018 3.67483C7.07335 5.06846 5.31312 6.81548 3.88635 8.81754C3.17916 9.80995 2.56319 10.8669 2.0354 11.9769C3.46808 11.195 4.8622 11.1661 6.44072 11.1607L6.82881 11.1619C9.27892 11.1619 12.9812 11.1619 12.9812 7.4705C12.9812 5.94923 12.2891 4.56619 11.6209 3.22875Z" fill="#00DDC1"/>
<path d="M40.6712 13.6335H34.0513C32.3286 13.6335 31.4181 12.6984 30.7289 12.034C30.1383 11.4187 29.843 11.1726 29.1294 11.1726C28.4402 11.1726 28.1449 11.4187 27.5544 12.034C26.8898 12.6984 25.9547 13.6335 24.2075 13.6335C23.1001 13.6335 21.8122 13.6335 21 13.1166V9.15452C21.5169 8.44093 22.3618 7.57952 23.346 6.59523C24.0598 5.90608 25.2656 5.4385 26.4468 4.99554C27.062 4.74952 27.9972 4.40491 28.2188 4.20804C28.834 3.4207 29.3261 2.75616 29.7199 2.16554C29.7937 2.09163 29.8183 2.04241 29.8922 1.96858C30.6305 2.31311 31.3687 2.70686 32.0578 3.14975C35.2078 5.09414 37.8164 7.875 39.5637 11.1726C39.982 11.9602 40.3513 12.7723 40.6712 13.6335Z" fill="#00CCB2"/>
<path d="M15.4421 24.6971C15.4421 22.2721 13.4955 21.8456 12.0739 21.5344C10.6067 21.2135 9.09029 20.8819 7.84063 19.0746C7.67238 18.8307 7.52341 18.5807 7.3792 18.3405C6.80966 17.3876 6.02979 16.0838 4.36792 16.0838C2.81539 16.0838 1.93946 16.7171 1.16681 17.277C0.879621 17.4847 0.578648 17.6795 0.249211 17.8608C0.116156 18.7637 0.0287109 19.6804 0.0153398 20.6166C0.0137813 20.7181 0 20.8163 0 20.918C0 26.6104 2.29179 31.7728 5.99328 35.5481C6.59187 36.1585 7.22974 36.7279 7.89879 37.262L8.10625 37.1147C7.81061 36.6977 9.30669 35.156 10.2968 34.1359C12.4681 31.8984 15.4421 28.8343 15.4421 24.6971Z" fill="#00DDC1"/>
</g>
<defs>
<clipPath id="clip0">
<rect width="42" height="42" fill="white"/>
</clipPath>
</defs>
</svg>
