<svg width="42" height="42" viewBox="0 0 42 42" fill="none" xmlns="http://www.w3.org/2000/svg">
<g clip-path="url(#clip0)">
<path d="M9.79736 3.8103H32.3281V5.82392H9.79736V3.8103Z" fill="#FD8F3E"/>
<path d="M30.204 2.95921V35.6519H11.9219V29.7146C11.9219 29.571 11.9946 29.4374 12.1151 29.3595L12.8473 28.8866C13.0985 28.7244 13.1065 28.3595 12.862 28.1867C12.6496 28.0368 12.3859 27.8503 12.1 27.6471C11.9882 27.5677 11.9219 27.4392 11.9219 27.3023V2.95921H30.204Z" fill="#FAB03C"/>
<path d="M30.204 2.95921V35.6519H11.9219V29.7146C11.9219 29.571 11.9946 29.4374 12.1151 29.3595L12.8473 28.8866C13.0985 28.7244 13.1065 28.3595 12.862 28.1867C12.6496 28.0368 12.3859 27.8503 12.1 27.6471C11.9882 27.5677 11.9219 27.4392 11.9219 27.3023V2.95921H30.204Z" fill="#FAB03C"/>
<path d="M28.4573 2.95954H30.2036V35.6523H28.4573V2.95954Z" fill="#FD8F3E"/>
<path d="M30.204 2.95954V12.5015C28.4865 11.8619 27.2614 10.2193 27.2614 8.29895C27.2614 7.37738 27.5434 6.51894 28.0276 5.80533H14.0986C14.5824 6.51894 14.8644 7.37738 14.8644 8.29895C14.8644 10.2193 13.6394 11.8619 11.9219 12.5015V2.95954H30.204Z" fill="#FD8F3E"/>
<path d="M34.2591 36.9696C34.2591 37.0785 34.2498 37.1849 34.2306 37.2881C34.0803 38.1388 33.3375 38.7852 32.4435 38.7852H9.68204C9.18024 38.7852 8.72618 38.5814 8.39774 38.2529C8.14075 37.9959 7.96034 37.6614 7.89465 37.2881C7.87543 37.1849 7.86646 37.0785 7.86646 36.9696C7.86646 35.9666 8.67876 35.153 9.68204 35.153H32.4435C32.945 35.153 33.3991 35.3562 33.7275 35.6853C34.0559 36.014 34.2591 36.4681 34.2591 36.9696Z" fill="#F6CB43"/>
<path d="M34.2307 37.2881C34.0804 38.1388 33.3377 38.7852 32.4436 38.7852H9.68216C9.18036 38.7852 8.7263 38.5814 8.39786 38.2529C8.14087 37.9959 7.96046 37.6614 7.89478 37.2881H34.2307Z" fill="#FAB03C"/>
<path d="M28.0337 8.65496H14.0916C13.7417 8.65496 13.4578 8.37106 13.4578 8.02114C13.4578 7.67091 13.7417 7.38732 14.0916 7.38732H28.0337C28.3836 7.38732 28.6672 7.67091 28.6672 8.02114C28.6672 8.37106 28.3836 8.65496 28.0337 8.65496Z" fill="#FD8F3E"/>
<path d="M37.819 5.85466C37.819 9.13272 35.1239 11.7904 31.7993 11.7904C29.8447 11.7904 28.2595 10.227 28.2595 8.29862C28.2595 7.4578 28.5604 6.68683 29.0631 6.08442C29.6604 5.36696 30.5429 4.88791 31.5401 4.81677C31.6253 4.81101 31.7125 4.80748 31.7997 4.80748H10.326C10.4132 4.80748 10.5003 4.81101 10.5856 4.81677C11.5828 4.88791 12.4649 5.36696 13.0625 6.08442C13.5653 6.68683 13.8662 7.45748 13.8662 8.29862C13.8662 10.227 12.281 11.7904 10.3263 11.7904C7.00182 11.7904 4.30664 9.13272 4.30664 5.85466C4.30664 2.57565 7.0015 -0.0820389 10.326 -0.0820389H23.3267C23.4847 -0.0820389 23.6334 -0.00865924 23.7289 0.116631L24.6216 1.28109C24.8276 1.54994 25.2349 1.54481 25.4342 1.2702L26.2661 0.126885C26.3616 -0.0041731 26.5144 -0.0820389 26.6759 -0.0820389H31.7997C35.1239 -0.0820389 37.819 2.57565 37.819 5.85466Z" fill="#F6CB43"/>
<path d="M37.8186 5.85434C37.8186 9.13272 35.1241 11.7907 31.7999 11.7907C31.4019 11.7907 31.0196 11.726 30.6627 11.6068C33.2643 10.9521 35.1882 8.62419 35.1882 5.85434C35.1882 2.57533 32.4936 -0.0820389 29.1694 -0.0820389H31.7999C35.1241 -0.0820389 37.8186 2.57533 37.8186 5.85434Z" fill="#FAB03C"/>
<path d="M21.0628 32.7341C20.4793 32.7341 20.0063 32.2611 20.0063 31.6779V11.3796C20.0063 10.7961 20.4796 10.3231 21.0628 10.3231C21.646 10.3231 22.119 10.7961 22.119 11.3796V31.6779C22.119 32.2611 21.6463 32.7341 21.0628 32.7341Z" fill="#D85322"/>
<path d="M25.5118 32.2925C24.9283 32.2925 24.4553 31.8195 24.4553 31.2363V12.6277C24.4553 12.0442 24.9283 11.5712 25.5118 11.5712C26.095 11.5712 26.5679 12.0442 26.5679 12.6277V31.2363C26.5683 31.8195 26.0953 32.2925 25.5118 32.2925Z" fill="#D85322"/>
<path d="M16.6177 32.2925C16.0345 32.2925 15.5615 31.8195 15.5615 31.2363V12.628C15.5615 12.0445 16.0345 11.5715 16.6177 11.5715C17.2012 11.5715 17.6742 12.0445 17.6742 12.628V31.2363C17.6742 31.8195 17.2012 32.2925 16.6177 32.2925Z" fill="#D85322"/>
<path d="M36.1009 38.2862H6.02481C5.00807 38.2862 4.18359 39.0992 4.18359 40.1021C4.18359 41.1051 5.00807 41.9181 6.02481 41.9181H36.1009C37.1176 41.9181 37.9421 41.1051 37.9421 40.1021C37.9421 39.0992 37.1176 38.2862 36.1009 38.2862Z" fill="#F6CB43"/>
<path d="M34.2081 6.84001V6.98453C34.2081 8.09996 33.3003 9.00776 32.1849 9.00776C31.835 9.00776 31.5511 8.72353 31.5511 8.37394C31.5511 8.02402 31.835 7.74011 32.1849 7.74011C32.6015 7.74011 32.9405 7.40109 32.9405 6.98453V6.84001C32.9405 6.42345 32.6015 6.08443 32.1849 6.08443H29.0632C29.6605 5.36697 30.543 4.88792 31.5402 4.81678H32.1849C33.3003 4.81678 34.2081 5.72458 34.2081 6.84001Z" fill="#FAB03C"/>
<path d="M10.5745 8.37362C10.5745 8.72353 10.2906 9.00744 9.94071 9.00744C8.82527 9.00744 7.91748 8.09996 7.91748 6.98453V6.84001C7.91748 5.72426 8.82527 4.81678 9.94071 4.81678H10.5854C11.5826 4.88792 12.4648 5.36697 13.0624 6.08443H9.94071C9.52414 6.08443 9.18512 6.42345 9.18512 6.84001V6.98453C9.18512 7.40109 9.52414 7.74011 9.94071 7.74011C10.2906 7.74011 10.5745 8.02402 10.5745 8.37362Z" fill="#FAB03C"/>
<path d="M16.1723 1.79155C16.0665 2.02642 15.8352 2.16485 15.5933 2.16485C15.5064 2.16485 15.4183 2.14723 15.334 2.1091L14.9418 1.9335L14.6698 2.53912C14.564 2.77432 14.3333 2.91371 14.0917 2.91371C14.0045 2.91371 13.9167 2.89609 13.8322 2.85795C13.5127 2.7144 13.3701 2.33917 13.5136 2.0197L13.9389 1.07313L13.5857 0.143548C13.5569 0.0692065 13.5434 -0.00769791 13.5434 -0.0820389H14.8556L15.1245 0.626123L15.8538 0.953287C16.1733 1.09684 16.3162 1.47207 16.1723 1.79155Z" fill="#FD8F3E"/>
</g>
<defs>
<clipPath id="clip0">
<rect width="42" height="42" fill="white"/>
</clipPath>
</defs>
</svg>
