<svg width="42" height="42" viewBox="0 0 42 42" fill="none" xmlns="http://www.w3.org/2000/svg">
<path d="M27.9118 26.0437H17.4756V30.6338H27.9118V26.0437Z" fill="#FF9926"/>
<path d="M17.0317 7.0505L24.0565 10.7226V0C24.0565 0 19.0725 1.0098 17.0317 7.0505Z" fill="black"/>
<path d="M20.2301 35.8033V41.4033H14.7907L12.0366 33.141L20.2301 35.8033Z" fill="#FF9926"/>
<path d="M14.2773 7.05051L18.8675 8.88661L21.2984 0.000988007C21.147 0.0330622 16.286 1.10439 14.2773 7.05051Z" fill="#5E5E5E"/>
<path d="M31.8329 13.0517C32.1698 13.0966 32.4296 13.3849 32.4296 13.7338C32.4296 14.1138 32.1212 14.4222 31.7411 14.4222C31.6888 14.4222 31.6383 14.4204 31.586 14.4195L30.6468 19.6522L26.994 27.8796H20.2299L8.3147 21.4884L14.2773 7.05051H17.0314C18.2488 1.12826 21.1846 0.0413494 21.2984 0.000907985C21.3021 5.64073e-06 21.3021 7.05051 21.3021 7.05051C24.6474 7.05051 25.7518 8.7388 26.7259 10.2278C27.7155 11.7398 28.5702 13.0453 31.7411 13.0453C31.7723 13.0453 31.8026 13.0481 31.832 13.0517L31.8329 13.0453V13.0517Z" fill="#4C4C4C"/>
<path d="M8.06329 35.1198L8.50306 33.141L3.91284 35.8033V41.4033H6.66696H9.35217L12.1063 33.141L8.06329 35.1198Z" fill="#FF9926"/>
<path d="M14.7905 31.3049H9.35205V41.4033H14.7905V31.3049Z" fill="#FF3B1E"/>
<path d="M30.6469 35.8033V41.3115H27.8926L26.9746 33.9673L30.6469 35.8033Z" fill="#FF7A23"/>
<path d="M30.647 35.8033H27.8927L26.6074 27.8797L27.8927 20.5758C28.6547 19.9984 29.6169 19.655 30.647 19.6523C30.6553 19.8231 30.647 35.8033 30.647 35.8033Z" fill="#FFB32D"/>
<path d="M27.8927 33.9673V41.3115H26.0759V35.8033L27.8927 33.9673Z" fill="#FF9926"/>
<path d="M27.8928 20.5759V35.8033H26.0759V24.2233C26.076 22.7323 26.7893 21.4094 27.8928 20.5759Z" fill="#FECC33"/>
<path d="M35.7727 29.9359V41.3114C35.7727 41.6916 36.0809 41.9999 36.4612 41.9999C36.8415 41.9999 37.1497 41.6916 37.1497 41.3114V29.9359H35.7727Z" fill="#FECC33"/>
<path d="M34.835 27.5771L35.0852 30.854H37.8368L38.0872 27.5771H34.835Z" fill="#FF9926"/>
<path d="M37.3777 33.7481H35.5442C35.1638 33.7481 34.8557 33.4398 34.8557 33.0596C34.8557 32.6794 35.1639 32.3711 35.5442 32.3711H37.3777C37.7581 32.3711 38.0662 32.6794 38.0662 33.0596C38.0663 33.4398 37.758 33.7481 37.3777 33.7481Z" fill="#FF9926"/>
<path d="M19.3851 12.9369H13.8228V14.314H19.3851V12.9369Z" fill="black"/>
<path d="M21.3019 11.8351C19.7501 11.8351 18.3786 12.5427 17.5493 13.6252C18.3786 14.7078 19.7501 15.4154 21.3019 15.4154C22.8538 15.4154 24.2253 14.7078 25.0546 13.6252C24.2253 12.5427 22.8538 11.8351 21.3019 11.8351Z" fill="white"/>
<path d="M18.8483 21.4884C16.3209 21.47 14.2774 19.4146 14.2774 16.8826V7.0505C8.55351 7.0505 3.91284 11.6903 3.91284 17.4142V35.8033H6.66696H12.1063H20.2299V21.4884H18.8483Z" fill="#FECC33"/>
</svg>
