<svg width="42" height="42" viewBox="0 0 42 42" fill="none" xmlns="http://www.w3.org/2000/svg">
<path d="M39.9455 30.4961H33.4575V39.6929H39.9455V30.4961Z" fill="#CCCCCC"/>
<path d="M8.60686 30.4502H2.0542V39.7381H8.60686V30.4502Z" fill="#CCCCCC"/>
<path d="M4.60299 30.4502H2.0542V39.7381H4.60299V30.4502Z" fill="#BCBBBB"/>
<path d="M36.2256 30.4502H33.6768V39.7381H36.2256V30.4502Z" fill="#BCBBBB"/>
<path d="M29.0367 18.2419H12.9639V23.9358H29.0367V18.2419Z" fill="#EFEFEF"/>
<path d="M15.4616 18.2419H12.9639V23.9358H15.4616V18.2419Z" fill="#DDDDDD"/>
<path d="M25.4612 1.61676H21V5.78362H25.4612C26.0106 5.78362 26.4602 5.33409 26.4602 4.78456V2.61582C26.4602 2.06637 26.0106 1.61676 25.4612 1.61676Z" fill="#F94A46"/>
<path d="M25.4612 3.70011H21V5.78354H25.4612C26.0106 5.78354 26.4602 5.33401 26.4602 4.78448V2.70105C26.4602 3.25058 26.0106 3.70011 25.4612 3.70011Z" fill="#EF3C3C"/>
<path d="M21.0002 8.66668C20.6553 8.66668 20.3757 8.3872 20.3757 8.04226V0.624422C20.3757 0.279562 20.6553 0 21.0002 0C21.345 0 21.6246 0.27948 21.6246 0.624422V8.04234C21.6246 8.3872 21.345 8.66668 21.0002 8.66668Z" fill="#666666"/>
<path d="M33.6766 25.8849H8.32324V39.738H33.6766V25.8849Z" fill="#EFEFEF"/>
<path d="M10.8209 25.8849H8.32324V39.738H10.8209V25.8849Z" fill="#DDDDDD"/>
<path d="M21.0001 8.04233C16.5618 8.04233 12.9639 11.7235 12.9639 16.1619H29.0364C29.0364 11.7235 25.4385 8.04233 21.0001 8.04233Z" fill="#EFEFEF"/>
<path d="M22.249 8.1412C17.3689 7.36329 12.9639 11.2236 12.9639 16.1618H15.4616C15.4616 12.1484 18.4039 8.75422 22.249 8.1412Z" fill="#DDDDDD"/>
<path d="M40.4564 28.1888C39.6872 28.1888 34.5326 28.1888 33.6768 28.1888V30.6516C34.5092 30.6516 39.6971 30.6516 40.4564 30.6516C41.1364 30.6516 41.6878 30.1003 41.6878 29.4203C41.6878 28.7401 41.1365 28.1888 40.4564 28.1888Z" fill="#EAE4D6"/>
<path d="M36.2253 28.1885H33.6765V30.6511H36.2253V28.1885Z" fill="#DDD3C0"/>
<path d="M1.54387 28.1888C2.11259 28.1888 7.39729 28.1888 8.32351 28.1888V30.6516C7.32839 30.6516 1.80998 30.6516 1.54387 30.6516C0.863832 30.6516 0.3125 30.1003 0.3125 29.4203C0.312418 28.7401 0.86375 28.1888 1.54387 28.1888Z" fill="#EAE4D6"/>
<path d="M16.5043 22.3165C16.1594 22.3165 15.8799 22.037 15.8799 21.6921V20.5462C15.8799 20.2013 16.1594 19.9218 16.5043 19.9218C16.8492 19.9218 17.1287 20.2013 17.1287 20.5462V21.6921C17.1288 22.037 16.8492 22.3165 16.5043 22.3165Z" fill="#898989"/>
<path d="M19.5011 22.3165C19.1563 22.3165 18.8767 22.037 18.8767 21.6921V20.5462C18.8767 20.2013 19.1563 19.9218 19.5011 19.9218C19.846 19.9218 20.1256 20.2013 20.1256 20.5462V21.6921C20.1256 22.037 19.8461 22.3165 19.5011 22.3165Z" fill="#898989"/>
<path d="M25.4958 22.3165C25.1509 22.3165 24.8713 22.037 24.8713 21.6921V20.5462C24.8713 20.2013 25.1509 19.9218 25.4958 19.9218C25.8406 19.9218 26.1202 20.2013 26.1202 20.5462V21.6921C26.1202 22.037 25.8406 22.3165 25.4958 22.3165Z" fill="#898989"/>
<path d="M22.4984 22.3165C22.1536 22.3165 21.874 22.037 21.874 21.6921V20.5462C21.874 20.2013 22.1536 19.9218 22.4984 19.9218C22.8433 19.9218 23.1229 20.2013 23.1229 20.5462V21.6921C23.1229 22.037 22.8433 22.3165 22.4984 22.3165Z" fill="#898989"/>
<path d="M37.6823 34.2202H36.1159C35.771 34.2202 35.4915 33.9407 35.4915 33.5958C35.4915 33.2509 35.771 32.9714 36.1159 32.9714H37.6823C38.0271 32.9714 38.3067 33.2509 38.3067 33.5958C38.3068 33.9407 38.0271 34.2202 37.6823 34.2202Z" fill="#898989"/>
<path d="M37.6823 37.2173H36.1159C35.771 37.2173 35.4915 36.9378 35.4915 36.5929C35.4915 36.2479 35.771 35.9684 36.1159 35.9684H37.6823C38.0271 35.9684 38.3067 36.2479 38.3067 36.5929C38.3068 36.9378 38.0271 37.2173 37.6823 37.2173Z" fill="#898989"/>
<path d="M5.97182 34.2202H4.40543C4.06057 34.2202 3.78101 33.9407 3.78101 33.5958C3.78101 33.2509 4.06057 32.9714 4.40543 32.9714H5.97182C6.31668 32.9714 6.59624 33.2509 6.59624 33.5958C6.59624 33.9407 6.3166 34.2202 5.97182 34.2202Z" fill="#898989"/>
<path d="M5.97182 37.2173H4.40543C4.06057 37.2173 3.78101 36.9378 3.78101 36.5929C3.78101 36.2479 4.06057 35.9684 4.40543 35.9684H5.97182C6.31668 35.9684 6.59624 36.2479 6.59624 36.5929C6.59624 36.9378 6.3166 37.2173 5.97182 37.2173Z" fill="#898989"/>
<path d="M18.0031 37.9409C17.6582 37.9409 17.3787 37.6614 17.3787 37.3165V28.6302C17.3787 28.2853 17.6582 28.0058 18.0031 28.0058C18.3479 28.0058 18.6275 28.2852 18.6275 28.6302V37.3165C18.6275 37.6614 18.3479 37.9409 18.0031 37.9409Z" fill="#898989"/>
<path d="M15.0058 37.9409C14.6609 37.9409 14.3813 37.6614 14.3813 37.3165V28.6302C14.3813 28.2853 14.6609 28.0058 15.0058 28.0058C15.3506 28.0058 15.6302 28.2852 15.6302 28.6302V37.3165C15.6301 37.6614 15.3505 37.9409 15.0058 37.9409Z" fill="#898989"/>
<path d="M12.0089 37.9409C11.6641 37.9409 11.3845 37.6614 11.3845 37.3165V28.6302C11.3845 28.2853 11.6641 28.0058 12.0089 28.0058C12.3538 28.0058 12.6334 28.2852 12.6334 28.6302V37.3165C12.6334 37.6614 12.3538 37.9409 12.0089 37.9409Z" fill="#898989"/>
<path d="M29.9911 37.9409C29.6463 37.9409 29.3667 37.6614 29.3667 37.3165V28.6302C29.3667 28.2853 29.6463 28.0058 29.9911 28.0058C30.336 28.0058 30.6155 28.2852 30.6155 28.6302V37.3165C30.6155 37.6614 30.3361 37.9409 29.9911 37.9409Z" fill="#898989"/>
<path d="M26.9943 37.9409C26.6494 37.9409 26.3699 37.6614 26.3699 37.3165V28.6302C26.3699 28.2853 26.6494 28.0058 26.9943 28.0058C27.3392 28.0058 27.6187 28.2852 27.6187 28.6302V37.3165C27.6188 37.6614 27.3392 37.9409 26.9943 37.9409Z" fill="#898989"/>
<path d="M23.997 37.9409C23.6521 37.9409 23.3726 37.6614 23.3726 37.3165V28.6302C23.3726 28.2853 23.6521 28.0058 23.997 28.0058C24.3418 28.0058 24.6214 28.2852 24.6214 28.6302V37.3165C24.6213 37.6614 24.3418 37.9409 23.997 37.9409Z" fill="#898989"/>
<path d="M21.0002 37.9409C20.6553 37.9409 20.3757 37.6614 20.3757 37.3165V28.6302C20.3757 28.2853 20.6553 28.0058 21.0002 28.0058C21.345 28.0058 21.6246 28.2852 21.6246 28.6302V37.3165C21.6246 37.6614 21.345 37.9409 21.0002 37.9409Z" fill="#898989"/>
<path d="M30.5871 17.3101C30.5871 16.63 30.0358 16.0787 29.3557 16.0787C23.7945 16.0787 18.24 16.0787 12.6445 16.0787C11.9644 16.0787 11.4131 16.63 11.4131 17.3101C11.4131 17.9901 11.9643 18.5414 12.6445 18.5414C15.4518 18.5414 27.4603 18.5414 29.3557 18.5414C30.0357 18.5414 30.5871 17.9901 30.5871 17.3101Z" fill="#EAE4D6"/>
<path d="M14.4728 17.3101C14.4728 16.63 15.024 16.0787 15.7041 16.0787C15.0588 16.0787 13.3716 16.0787 12.6445 16.0787C11.9644 16.0787 11.4131 16.63 11.4131 17.3101C11.4131 17.9901 11.9643 18.5414 12.6445 18.5414C13.4516 18.5414 15.0594 18.5414 15.7041 18.5414C15.0241 18.5414 14.4728 17.9901 14.4728 17.3101Z" fill="#DDD3C0"/>
<path d="M35.2979 24.9035C35.2979 24.2234 34.7466 23.6721 34.0665 23.6721C30.9959 23.6721 10.8475 23.6721 7.93352 23.6721C7.25348 23.6721 6.70215 24.2234 6.70215 24.9035C6.70215 25.5835 7.2534 26.1348 7.93352 26.1348C13.8647 26.1348 27.8401 26.1348 34.0665 26.1348C34.7466 26.1348 35.2979 25.5835 35.2979 24.9035Z" fill="#EAE4D6"/>
<path d="M9.76207 24.9035C9.76207 24.2234 10.3133 23.6721 10.9934 23.6721C10.3481 23.6721 8.66089 23.6721 7.93376 23.6721C7.25372 23.6721 6.70239 24.2234 6.70239 24.9035C6.70239 25.5835 7.25364 26.1348 7.93376 26.1348C8.74095 26.1348 10.3487 26.1348 10.9934 26.1348C10.3133 26.1348 9.76207 25.5835 9.76207 24.9035Z" fill="#DDD3C0"/>
<path d="M3.37194 29.4201C3.37194 28.7401 3.92319 28.1887 4.60331 28.1887C3.95797 28.1887 2.27075 28.1887 1.54363 28.1887C0.863588 28.1887 0.312256 28.7401 0.312256 29.4201C0.312256 30.1001 0.863506 30.6515 1.54363 30.6515C2.35081 30.6515 3.95854 30.6515 4.60331 30.6515C3.92327 30.6515 3.37194 30.1002 3.37194 29.4201Z" fill="#DDD3C0"/>
<path d="M40.4565 39.5372C33.023 39.5372 8.95654 39.5372 1.54363 39.5372C0.863588 39.5372 0.312256 40.0885 0.312256 40.7685C0.312256 41.4486 0.863588 41.9999 1.54363 41.9999C13.4599 41.9999 28.9135 41.9999 40.4565 41.9999C41.1365 41.9999 41.6878 41.4486 41.6878 40.7685C41.6878 40.0885 41.1366 39.5372 40.4565 39.5372Z" fill="#EAE4D6"/>
<path d="M9.57226 40.7686C9.57226 40.0886 10.1235 39.5372 10.8036 39.5372H1.54387C0.863832 39.5372 0.3125 40.0886 0.3125 40.7686C0.3125 41.4487 0.86375 42 1.54387 42H10.8037C10.1236 42 9.57226 41.4487 9.57226 40.7686Z" fill="#DDD3C0"/>
</svg>
