<svg width="42" height="42" viewBox="0 0 42 42" fill="none" xmlns="http://www.w3.org/2000/svg">
<g clip-path="url(#clip0)">
<path d="M0.593752 40.0914C0.739439 40.7444 1.25599 41.2511 1.91232 41.3814C3.5527 41.7073 5.21359 41.9046 6.87841 41.9728C7.35157 41.9765 7.78962 41.9362 8.23004 41.9362C13.9254 41.8473 25.4952 38.0084 31.7675 31.7361C39.6318 23.8718 42.6327 12.329 40.692 2.12371C40.5639 1.45007 39.0531 0.415816 38.5308 0.339445C36.9837 0.113285 35.4234 0 33.8634 0C32.113 0.000164063 30.3238 0.181289 28.5312 0.526805C27.4121 1.68451 25.6874 2.32395 23.3045 1.99328C18.5016 3.76343 13.9282 6.631 10.2953 10.2639C6.66242 13.8968 3.79494 18.4702 2.02479 23.273C1.9567 25.4089 1.89206 27.3467 0.546994 28.5588C0.208861 30.3317 0.0316737 32.1008 0.0315096 33.832C-0.0327209 36.7068 0.324525 38.8847 0.593752 40.0914Z" fill="#D19A6E"/>
<path d="M31.7676 31.7358C28.1347 35.3692 23.561 38.2368 18.758 40.007C16.8514 40.2746 15.1472 41.0337 13.532 41.4732C11.7392 41.8187 9.94993 41.9998 8.19947 42C7.75494 42 7.31041 41.9907 6.86597 41.9713C14.7581 41.6071 23.2646 37.7045 29.2324 31.7358C37.3806 23.5876 41.0905 11.2952 38.6533 0.842543C38.6136 0.66675 38.573 0.499406 38.5308 0.339691C39.0539 0.415734 39.5744 0.504492 40.0933 0.606703C40.766 0.739347 41.2933 1.26837 41.4217 1.94193C42.1241 5.63678 42.0834 9.53064 41.3723 13.3682C39.9492 14.6479 39.116 16.4113 39.9577 18.646C38.2475 23.4897 35.4643 28.0391 31.7676 31.7358Z" fill="#BC845E"/>
<path d="M17.859 40.0227L13.7801 41.2047L13.062 41.0028L0.55917 28.5C0.55917 28.4992 0.55917 28.4983 0.55835 28.4975C0.891314 26.7693 1.37727 25.0386 2.00087 23.3358C2.00932 23.3156 2.01777 23.2944 2.0254 23.2733C2.0254 23.2733 14.8222 36.0708 18.0335 39.2823C18.0335 39.2822 17.8588 40.0225 17.859 40.0227Z" fill="#FCF1F2"/>
<path d="M18.7578 40.0065C17.0347 40.642 15.282 41.1364 13.5319 41.4727L13.062 41.0028C14.7377 40.5634 16.4051 39.9854 18.0336 39.2822C18.4941 39.7428 18.7578 40.0065 18.7578 40.0065Z" fill="#F4E5E0"/>
<path d="M23.3044 1.99319L38.0387 16.7275L39.7054 17.419C40.3167 15.689 40.3363 15.3617 40.6662 13.5822L39.1706 11.1667L28.5313 0.527374C26.7811 0.863784 25.0284 1.35794 23.3044 1.99319Z" fill="#FCF1F2"/>
<path d="M41.372 13.3681C41.0424 15.1479 40.5683 16.9157 39.9574 18.6456L38.0391 16.7273C38.5714 14.8952 38.9517 13.0318 39.1706 11.1667L41.372 13.3681Z" fill="#F4E5E0"/>
<path d="M32.3002 41.9459C34.9935 41.5664 40.2857 37.5733 40.2857 32.1127C40.2857 26.6521 37.0678 23.7807 32.6635 22.5007C32.6635 22.5007 31.2357 22.2528 30.8205 22.3059C28.9048 22.5512 27.1604 23.3447 25.7499 24.5241C24.397 27.2821 24.397 29.2135 24.397 32.2621C24.397 35.3106 24.397 36.9127 25.7499 39.7012C27.1604 40.8807 28.9048 41.6742 30.8205 41.9194C31.496 41.8878 32.3002 41.9459 32.3002 41.9459Z" fill="#FCF1F2"/>
<path d="M41.0217 32.1222C41.0217 35.1708 39.5679 36.7253 38.4276 39.7012C36.7112 41.1363 34.5009 42 32.089 42H32.0882C31.6589 42 31.2356 41.9729 30.8206 41.9197C35.6822 41.2977 39.4411 37.1442 39.4411 32.1127C39.4411 29.3823 38.3341 26.9104 36.5451 25.1214C35.0375 23.6138 33.044 22.5904 30.8206 22.3056C31.2356 22.2524 31.6589 22.2253 32.0883 22.2253H32.0891C34.5005 22.2253 36.7114 23.0893 38.4276 24.5242C38.6539 24.7136 41.0217 29.3917 41.0217 32.1222Z" fill="#F4E5E0"/>
<path d="M22.2009 32.1127C22.2009 29.3823 23.3079 26.9104 25.097 25.1214C25.3057 24.9126 25.5237 24.7132 25.7502 24.5248C27.9195 26.3374 29.2995 29.0637 29.2995 32.1127C29.2995 34.8431 28.1925 37.3149 26.4035 39.104C26.1948 39.3127 25.9767 39.5122 25.7503 39.7006C25.5238 39.5122 25.3057 39.3127 25.097 39.104C23.3079 37.3149 22.2009 34.8431 22.2009 32.1127Z" fill="#F4E5E0"/>
<path d="M30.5673 32.7465H27.863C27.5129 32.7465 27.2292 32.4627 27.2292 32.1127C27.2292 31.7627 27.513 31.4789 27.863 31.4789H30.5673C30.9174 31.4789 31.201 31.7627 31.201 32.1127C31.201 32.4627 30.9174 32.7465 30.5673 32.7465Z" fill="#E6D6D1"/>
<path d="M26.8306 28.567C26.5772 28.567 26.338 28.414 26.2402 28.1637C26.1128 27.8377 26.2737 27.4701 26.5997 27.3426L29.1184 26.3584C29.4448 26.2309 29.8121 26.3919 29.9395 26.718C30.0669 27.044 29.9059 27.4116 29.5799 27.539L27.0612 28.5233C26.9854 28.5529 26.9074 28.567 26.8306 28.567Z" fill="#E6D6D1"/>
<path d="M29.3485 37.9107C29.2718 37.9107 29.1938 37.8966 29.1179 37.867L26.5993 36.8827C26.2733 36.7553 26.1122 36.3877 26.2397 36.0616C26.3671 35.7356 26.7346 35.5747 27.0608 35.702L29.5795 36.6863C29.9054 36.8137 30.0665 37.1813 29.939 37.5073C29.8412 37.7576 29.6019 37.9107 29.3485 37.9107Z" fill="#E6D6D1"/>
<path d="M40.6211 32.1127C40.6211 29.3823 37.1587 25.7954 37.1587 25.7954C35.734 27.508 34.8772 29.7102 34.8772 32.1127C34.8772 34.515 35.7342 36.7172 37.1586 38.4302C37.1586 38.4302 40.6211 34.8431 40.6211 32.1127Z" fill="#F4E5E0"/>
<path d="M41.9762 32.1127C41.9762 34.8431 40.8692 37.3149 39.0802 39.104C38.8714 39.3127 38.6535 39.5122 38.427 39.7006C38.2005 39.5122 37.9824 39.3127 37.7738 39.104C37.5583 38.8885 37.3538 38.6637 37.1594 38.4296C38.5842 36.7166 39.4411 34.5152 39.4411 32.1127C39.4411 29.7102 38.5842 27.5088 37.1594 25.7958C37.5423 25.3352 37.9664 24.9093 38.4271 24.5248C38.6535 24.7132 38.8716 24.9127 39.0803 25.1214C40.8692 26.9104 41.9762 29.3823 41.9762 32.1127Z" fill="#E6D6D1"/>
<path d="M37.3466 28.567C37.2698 28.567 37.1919 28.5529 37.116 28.5233L34.5973 27.539C34.2713 27.4116 34.1103 27.0441 34.2378 26.718C34.3652 26.392 34.7327 26.231 35.0588 26.3584L37.5775 27.3427C37.9035 27.4701 38.0645 27.8376 37.937 28.1637C37.8393 28.4139 37.6 28.567 37.3466 28.567Z" fill="#E6D6D1"/>
<path d="M9.67948 24.5379C9.80573 24.4117 9.9072 24.2566 9.97258 24.0781C12.5304 17.096 17.1621 12.4529 24.1326 9.88378C24.7898 9.64154 25.1258 8.91269 24.8836 8.25603C24.6416 7.59913 23.9128 7.26288 23.2559 7.50504C15.652 10.3076 10.3819 15.5904 7.59211 23.206C7.35127 23.8634 7.68899 24.5914 8.34639 24.8323C8.82504 25.0076 9.34126 24.8761 9.67948 24.5379Z" fill="white"/>
<path d="M21.6245 13.3439C22.259 13.0481 22.5335 12.2939 22.2376 11.6594L20.4518 7.82989C20.156 7.19538 19.4018 6.9209 18.7673 7.21679C18.1328 7.51267 17.8584 8.26687 18.1542 8.9013L19.94 12.7308C20.2358 13.3653 20.99 13.6398 21.6245 13.3439Z" fill="#FFE07D"/>
<path d="M13.414 21.5544C13.1181 22.1889 12.3639 22.4634 11.7294 22.1675L7.89991 20.3817C7.2654 20.0858 6.99092 19.3316 7.28681 18.6972C7.5827 18.0627 8.33689 17.7882 8.97132 18.0841L12.8008 19.8699C13.4354 20.1657 13.7099 20.9199 13.414 21.5544Z" fill="#FFE07D"/>
<path d="M16.9039 16.8338C16.4088 17.3289 15.6062 17.3289 15.1112 16.8338L12.1235 13.8461C11.6284 13.351 11.6284 12.5484 12.1235 12.0534C12.6186 11.5584 13.4211 11.5584 13.9161 12.0534L16.9039 15.0412C17.3988 15.5362 17.3988 16.3388 16.9039 16.8338Z" fill="#FFE07D"/>
<path d="M36.3138 32.7465H33.6096C33.2595 32.7465 32.9758 32.4627 32.9758 32.1127C32.9758 31.7627 33.2596 31.4789 33.6096 31.4789H36.3138C36.664 31.4789 36.9476 31.7627 36.9476 32.1127C36.9476 32.4627 36.6639 32.7465 36.3138 32.7465Z" fill="#E6D6D1"/>
<path d="M34.8284 37.9107C34.575 37.9107 34.3358 37.7577 34.238 37.5074C34.1106 37.1814 34.2715 36.8138 34.5975 36.6863L37.1162 35.702C37.4426 35.5747 37.8099 35.7356 37.9373 36.0617C38.0647 36.3877 37.9037 36.7552 37.5777 36.8827L35.059 37.8671C34.9832 37.8966 34.9052 37.9107 34.8284 37.9107Z" fill="#E6D6D1"/>
</g>
<defs>
<clipPath id="clip0">
<rect width="42" height="42" fill="white"/>
</clipPath>
</defs>
</svg>
