<svg width="383" height="212" viewBox="0 0 383 212" fill="none" xmlns="http://www.w3.org/2000/svg">
<path fill-rule="evenodd" clip-rule="evenodd" d="M32 0H0V54H32V212H86V0H32ZM106 60C106 26.8629 132.863 0 166 0H253C274.793 0 293.873 11.6189 304.382 29H278C271.925 29 267 33.9249 267 40C267 46.0751 271.925 51 278 51H312.329H347C353.075 51 358 55.9249 358 62C358 68.0751 353.075 73 347 73H313H301C294.925 73 290 77.9249 290 84C290 90.0751 294.925 95 301 95H313H341C347.075 95 352 99.9249 352 106C352 112.075 347.075 117 341 117H313H278C271.925 117 267 121.925 267 128C267 134.075 271.925 139 278 139H313H356H372C378.075 139 383 143.925 383 150C383 156.075 378.075 161 372 161H312.329H294C287.925 161 283 165.925 283 172C283 178.075 287.925 183 294 183H304.382C293.873 200.381 274.793 212 253 212H166C132.863 212 106 185.137 106 152V60ZM372 95C365.925 95 361 99.9249 361 106C361 112.075 365.925 117 372 117C378.075 117 383 112.075 383 106C383 99.9249 378.075 95 372 95ZM168 69C168 66.2386 170.239 64 173 64H247C249.761 64 252 66.2386 252 69V143C252 145.761 249.761 148 247 148H173C170.239 148 168 145.761 168 143V69ZM263 183C269.075 183 274 178.075 274 172C274 165.925 269.075 161 263 161C256.925 161 252 165.925 252 172C252 178.075 256.925 183 263 183Z" fill="#00D2C9"/>
<path d="M0.599998 209.568V204.96H18.968V196.032H23V209.568H0.599998Z" fill="#00D2C9"/>
<path d="M0.599998 179.363V165.091H4.504V174.883H9.208V165.731H13.016V174.883H19.096V165.091H23V179.363H0.599998Z" fill="#00D2C9"/>
<path d="M15.128 137.542L0.599998 131.526V126.15L24.344 137.542L0.599998 148.902V143.558L15.128 137.542Z" fill="#00D2C9"/>
<path d="M0.599998 109.64V95.3685H4.504V105.16H9.208V96.0085H13.016V105.16H19.096V95.3685H23V109.64H0.599998Z" fill="#00D2C9"/>
<path d="M0.599998 76.7792V72.1712H18.968V63.2432H23V76.7792H0.599998Z" fill="#00D2C9"/>
</svg>
