<svg width="315" height="309" viewBox="0 0 315 309" fill="none" xmlns="http://www.w3.org/2000/svg">
<g id="smart-home/pana">
<g id="background complete">
<path id="Vector" d="M26.2954 196.862H14.7666V279.301H26.2954V196.862Z" fill="#E0E0E0"/>
<path id="Vector_2" d="M44.8286 196.862H33.2998V279.301H44.8286V196.862Z" fill="#E0E0E0"/>
<path id="Vector_3" d="M63.3618 196.862H51.833V279.301H63.3618V196.862Z" fill="#E0E0E0"/>
<path id="Vector_4" d="M81.8878 196.862H70.359V279.301H81.8878V196.862Z" fill="#E0E0E0"/>
<path id="Vector_5" d="M100.421 196.862H88.8922V279.301H100.421V196.862Z" fill="#E0E0E0"/>
<path id="Vector_6" d="M118.947 196.862H107.418V279.301H118.947V196.862Z" fill="#E0E0E0"/>
<path id="Vector_7" d="M137.48 196.862H125.951V279.301H137.48V196.862Z" fill="#E0E0E0"/>
<path id="Vector_8" d="M134.821 206.183H8.78422C8.22369 206.183 7.76929 206.637 7.76929 207.198V209.585C7.76929 210.145 8.22369 210.6 8.78422 210.6H134.821C135.382 210.6 135.836 210.145 135.836 209.585V207.198C135.836 206.637 135.382 206.183 134.821 206.183Z" fill="#E0E0E0"/>
<path id="Vector_9" d="M134.821 269.38H8.78422C8.22369 269.38 7.76929 269.834 7.76929 270.395V272.782C7.76929 273.343 8.22369 273.797 8.78422 273.797H134.821C135.382 273.797 135.836 273.343 135.836 272.782V270.395C135.836 269.834 135.382 269.38 134.821 269.38Z" fill="#E0E0E0"/>
<path id="Vector_10" d="M283.923 69.8318H241.025V114.546H283.923V69.8318Z" fill="#E0E0E0"/>
<path id="Vector_11" d="M281.014 69.8318H238.116V114.546H281.014V69.8318Z" fill="#FAFAFA"/>
<path id="Vector_12" d="M281.029 114.56H238.101V69.8175H281.029V114.56ZM238.144 114.56H281.029V69.8461H238.144V114.56Z" fill="#E0E0E0"/>
<path id="Vector_13" d="M275.246 75.8428H243.883V108.535H275.246V75.8428Z" fill="#FAFAFA"/>
<path id="Vector_14" d="M243.883 108.757C243.661 109.085 243.402 109.387 243.112 109.657C242.611 110.186 241.904 110.901 241.117 111.68C240.331 112.459 239.602 113.145 239.066 113.638C238.795 113.926 238.491 114.181 238.158 114.396C238.378 114.065 238.638 113.763 238.93 113.495C239.431 112.966 240.138 112.252 240.932 111.473C241.725 110.693 242.447 110 242.983 109.507C243.253 109.223 243.555 108.971 243.883 108.757Z" fill="#E0E0E0"/>
<path id="Vector_15" d="M275.246 108.678C275.577 108.898 275.879 109.157 276.147 109.45C276.676 109.95 277.39 110.658 278.169 111.444C278.949 112.23 279.642 112.959 280.128 113.495C280.415 113.765 280.669 114.067 280.886 114.396C280.557 114.179 280.257 113.922 279.992 113.631C279.463 113.131 278.741 112.423 277.962 111.63C277.183 110.836 276.49 110.115 275.997 109.578C275.715 109.306 275.463 109.004 275.246 108.678Z" fill="#E0E0E0"/>
<path id="Vector_16" d="M275.161 75.9285C275.384 75.6009 275.645 75.301 275.94 75.0351C276.44 74.5062 277.14 73.7843 277.927 73.0124C278.713 72.2405 279.442 71.54 279.978 71.0469C280.25 70.7618 280.555 70.5099 280.886 70.2964C280.662 70.6217 280.403 70.9214 280.114 71.1898C279.613 71.7187 278.906 72.4335 278.12 73.2125C277.333 73.9916 276.597 74.692 276.061 75.1781C275.797 75.469 275.494 75.7216 275.161 75.9285Z" fill="#E0E0E0"/>
<path id="Vector_17" d="M243.798 76.0142C243.471 75.7873 243.169 75.5261 242.897 75.2352C242.368 74.7349 241.654 74.0344 240.874 73.2411C240.095 72.4477 239.445 71.733 238.916 71.1969C238.628 70.9261 238.373 70.6213 238.158 70.2892C238.489 70.5091 238.791 70.7683 239.059 71.0611C239.588 71.5614 240.303 72.2619 241.082 73.0552C241.861 73.8486 242.554 74.5776 243.047 75.1065C243.335 75.376 243.587 75.6811 243.798 76.0142Z" fill="#E0E0E0"/>
<path id="Vector_18" d="M275.161 108.571C275.161 108.571 275.161 108.514 275.161 108.406C275.161 108.299 275.161 108.149 275.161 107.949C275.161 107.541 275.161 106.955 275.161 106.191C275.161 104.64 275.161 102.388 275.161 99.5221C275.161 93.8042 275.125 85.6418 275.096 75.8713L275.218 75.9928H243.941L244.077 75.8499C244.077 87.8504 244.077 99.0789 244.077 108.549L243.955 108.428L266.605 108.485H272.966H274.646H275.082C275.132 108.477 275.182 108.477 275.232 108.485H274.675H273.016H266.677L243.955 108.542H243.833V108.571C243.833 99.1004 243.833 87.8432 243.833 75.8713V75.6927H243.969H275.246H275.368V75.8142C275.368 85.6132 275.325 93.797 275.311 99.5435C275.311 102.402 275.311 104.64 275.311 106.183C275.311 106.934 275.311 107.52 275.311 107.92C275.311 108.113 275.311 108.256 275.311 108.363C275.28 108.445 275.228 108.516 275.161 108.571Z" fill="#E0E0E0"/>
<path id="Vector_19" d="M264.797 86.9569H254.333V97.4207H264.797V86.9569Z" fill="#EBEBEB"/>
<path id="Vector_20" d="M111.421 9.21472H20.2772V172.94H111.421V9.21472Z" fill="#EBEBEB"/>
<path id="Vector_21" d="M106.839 13.9677H23.9224V168.073H106.839V13.9677Z" fill="#FAFAFA"/>
<path id="Vector_22" d="M115.273 174.42L111.421 172.947V6.44156H115.273V174.42Z" fill="#E0E0E0"/>
<path id="Vector_23" d="M44.2496 113.509L65.7847 93.4968C68.515 90.9595 72.0816 88.2291 75.591 89.4799C77.2777 90.0803 78.5428 91.5241 80.201 92.2102C83.5031 93.5897 87.2841 91.6027 89.8214 89.0797C92.3587 86.5567 94.3743 83.3975 97.4548 81.5678C100.535 79.738 105.317 79.9739 106.839 83.2117V104.997L75.5409 118.398L44.2496 113.509Z" fill="#F5F5F5"/>
<path id="Vector_24" d="M23.9224 100.987C31.856 97.7567 39.7753 100.501 45.4575 106.92C46.6511 108.263 47.7375 109.829 49.3814 110.572C51.6042 111.58 54.1773 110.822 56.6003 110.572C59.9339 110.243 63.2936 110.841 66.3082 112.302C69.3228 113.763 71.8749 116.028 73.6825 118.849L47.1871 131.857L23.9224 131.693V100.987Z" fill="#E0E0E0"/>
<path id="Vector_25" d="M106.839 101.094C101.615 98.5714 97.0116 101.623 92.1871 104.854C87.3626 108.085 82.8955 112.23 77.2348 113.531C73.4538 114.403 69.3727 113.917 65.7489 115.218C58.3085 117.869 54.0058 127.318 46.115 127.769C41.8266 128.019 37.9884 125.417 34.1646 123.48C30.3407 121.543 27.3317 119.685 23.9224 122.286V168.073H106.832L106.839 101.094Z" fill="#EBEBEB"/>
<path id="Vector_26" d="M108.64 58.2959H23.9224V59.9398H108.64V58.2959Z" fill="#E0E0E0"/>
<path id="Vector_27" d="M108.64 94.9906H23.9224V96.6345H108.64V94.9906Z" fill="#E0E0E0"/>
<path id="Vector_28" d="M108.64 131.693H23.9224V133.336H108.64V131.693Z" fill="#E0E0E0"/>
<path id="Vector_29" d="M63.2831 59.1178L63.2831 172.44H67.4715V59.1178H63.2831Z" fill="#E0E0E0"/>
<path id="Vector_30" d="M41.7909 13.9677H39.8896V59.1178H41.7909V13.9677Z" fill="#E0E0E0"/>
<path id="Vector_31" d="M58.1584 13.9677H56.2572V59.1178H58.1584V13.9677Z" fill="#E0E0E0"/>
<path id="Vector_32" d="M74.526 13.9677H72.6248V59.1178H74.526V13.9677Z" fill="#E0E0E0"/>
<path id="Vector_33" d="M90.8935 13.9677H88.9923V59.1178H90.8935V13.9677Z" fill="#E0E0E0"/>
<path id="Vector_34" d="M20.2773 6.44156H16.4248V173.962H20.2773V6.44156Z" fill="#E0E0E0"/>
<path id="Vector_35" d="M115.273 4.74762H16.4248V9.21474H115.273V4.74762Z" fill="#E0E0E0"/>
<path id="Vector_36" d="M117.882 174.97H13.6874V179.13H117.882V174.97Z" fill="#E0E0E0"/>
<path id="Vector_37" d="M111.421 172.947L117.882 174.97H13.6874L20.2773 172.947H111.421Z" fill="#EBEBEB"/>
<path id="Vector_38" d="M280.115 10.0922L274.676 10.1217L274.822 37.1742L280.261 37.1447L280.115 10.0922Z" fill="#E0E0E0"/>
<path id="Vector_39" d="M241.649 10.1647L227.568 10.2409L227.649 25.1787L241.729 25.1025L241.649 10.1647Z" fill="#EBEBEB"/>
<path id="Vector_40" d="M255.671 10.0889L241.591 10.165L241.672 25.1029L255.752 25.0267L255.671 10.0889Z" fill="#F5F5F5"/>
<path id="Vector_41" d="M227.595 14.3752C236.953 14.4562 246.316 14.4133 255.684 14.2465C255.717 14.2391 255.747 14.2206 255.768 14.1939C255.79 14.1673 255.801 14.1341 255.801 14.1C255.801 14.0658 255.79 14.0327 255.768 14.0061C255.747 13.9794 255.717 13.9609 255.684 13.9535C246.328 13.8963 236.943 13.9535 227.587 14.125C227.559 14.1318 227.534 14.1478 227.516 14.1705C227.499 14.1932 227.489 14.2212 227.489 14.2501C227.489 14.279 227.499 14.307 227.516 14.3297C227.534 14.3524 227.559 14.3684 227.587 14.3752H227.595Z" fill="#E0E0E0"/>
<path id="Vector_42" d="M244.373 24.852L218.792 24.9904L218.858 37.1623L244.438 37.0238L244.373 24.852Z" fill="#EBEBEB"/>
<path id="Vector_43" d="M269.838 24.7142L244.258 24.8526L244.323 37.0245L269.904 36.8861L269.838 24.7142Z" fill="#F5F5F5"/>
<path id="Vector_44" d="M218.81 28.3841C235.807 28.577 252.853 28.3841 269.85 28.1339C269.89 28.1339 269.928 28.1181 269.956 28.0899C269.984 28.0618 270 28.0236 270 27.9838C270 27.944 269.984 27.9058 269.956 27.8777C269.928 27.8495 269.89 27.8337 269.85 27.8337C252.853 27.748 235.8 27.7551 218.81 28.1268C218.776 28.1268 218.744 28.1403 218.719 28.1644C218.695 28.1886 218.682 28.2213 218.682 28.2554C218.682 28.2895 218.695 28.3223 218.719 28.3464C218.744 28.3705 218.776 28.3841 218.81 28.3841Z" fill="#E0E0E0"/>
<path id="Vector_45" d="M308.346 37.1754H209.24V41.5353H308.346V37.1754Z" fill="#E0E0E0"/>
<path id="Vector_46" d="M229.496 39.2695H225.472V54.1504H229.496V39.2695Z" fill="#E0E0E0"/>
<path id="Vector_47" d="M289.555 39.2695H285.531V54.1504H289.555V39.2695Z" fill="#E0E0E0"/>
<path id="Vector_48" d="M285.421 -9.58517e-06L279.981 0.0294189L280.183 37.2382L285.622 37.2088L285.421 -9.58517e-06Z" fill="#EBEBEB"/>
<path id="Vector_49" d="M293.913 6.93702L285.465 6.98273L285.628 37.1372L294.077 37.0914L293.913 6.93702Z" fill="#F5F5F5"/>
<path id="Vector_50" d="M293.851 12.7527C291.038 12.9528 288.215 12.9528 285.403 12.7527C288.216 12.5621 291.038 12.5621 293.851 12.7527Z" fill="#E0E0E0"/>
<path id="Vector_51" d="M293.851 11.4876C291.038 11.6877 288.215 11.6877 285.403 11.4876C288.216 11.297 291.038 11.297 293.851 11.4876Z" fill="#E0E0E0"/>
<path id="Vector_52" d="M293.851 32.5653C291.038 32.7558 288.216 32.7558 285.403 32.5653C288.215 32.3651 291.038 32.3651 293.851 32.5653Z" fill="#E0E0E0"/>
<path id="Vector_53" d="M293.851 31.293C291.038 31.4931 288.215 31.4931 285.403 31.293C288.216 31.1024 291.038 31.1024 293.851 31.293Z" fill="#E0E0E0"/>
<path id="Vector_54" d="M289.763 28.5198C289.684 28.5198 289.62 25.475 289.62 21.7226C289.62 17.9703 289.684 14.9255 289.763 14.9255C289.841 14.9255 289.913 17.9703 289.913 21.7226C289.913 25.475 289.848 28.5198 289.763 28.5198Z" fill="#E0E0E0"/>
<path id="Vector_55" d="M303.143 14.3537H293.944V37.111H303.143V14.3537Z" fill="#EBEBEB"/>
<path id="Vector_56" d="M284.181 6.36291C284.182 6.6728 284.091 6.97612 283.92 7.23447C283.749 7.49282 283.505 7.69456 283.219 7.81413C282.933 7.9337 282.618 7.96571 282.314 7.90613C282.01 7.84654 281.731 7.69803 281.511 7.47941C281.291 7.26079 281.142 6.9819 281.081 6.67807C281.02 6.37424 281.05 6.05915 281.169 5.77271C281.287 5.48628 281.487 5.2414 281.745 5.06908C282.003 4.89677 282.305 4.80478 282.615 4.80478C283.029 4.80477 283.426 4.96871 283.72 5.26071C284.013 5.55271 284.179 5.94901 284.181 6.36291Z" fill="#E0E0E0"/>
<path id="Vector_57" d="M283.101 10.6728H282.136V32.8083H283.101V10.6728Z" fill="#E0E0E0"/>
</g>
<g id="Plant">
<path id="Vector_58" d="M30.8839 254.599C30.2264 252.312 28.8183 250.111 26.6384 249.167C24.4584 248.224 21.7353 248.745 19.4124 249.589C17.0895 250.432 14.8094 251.562 12.3436 251.733C9.87775 251.905 7.09026 250.711 6.35408 248.352C5.63934 246.137 6.99735 243.771 8.66984 242.163C10.4362 240.462 12.6019 239.233 14.9678 238.588C17.3336 237.943 19.8236 237.903 22.2087 238.473C24.5938 239.042 26.7975 240.202 28.6169 241.846C30.4363 243.49 31.8132 245.565 32.6208 247.881" fill="#00D2C9"/>
<g id="Group" opacity="0.5">
<path id="Vector_59" opacity="0.5" d="M30.8839 254.599C30.2264 252.312 28.8183 250.111 26.6384 249.167C24.4584 248.224 21.7353 248.745 19.4124 249.589C17.0895 250.432 14.8094 251.562 12.3436 251.733C9.87775 251.905 7.09026 250.711 6.35408 248.352C5.63934 246.137 6.99735 243.771 8.66984 242.163C10.4362 240.462 12.6019 239.233 14.9678 238.588C17.3336 237.943 19.8236 237.903 22.2087 238.473C24.5938 239.042 26.7975 240.202 28.6169 241.846C30.4363 243.49 31.8132 245.565 32.6208 247.881" fill="black"/>
</g>
<path id="Vector_60" d="M50.4321 264.505C54.0487 261.068 53.87 255.085 52.0617 250.432C50.2534 245.779 46.3438 242.198 41.9196 239.847C37.6217 237.592 32.8693 236.339 28.0183 236.182C23.1674 236.025 18.3438 236.967 13.9089 238.939C16.075 239.038 18.1842 239.664 20.0528 240.764C21.9214 241.864 23.4928 243.404 24.63 245.25C26.617 248.545 27.053 252.541 28.6897 256.021C30.5403 259.942 33.8211 263.005 37.859 264.583C41.8969 266.16 46.3854 266.133 50.4035 264.505" fill="#00D2C9"/>
<path id="Vector_61" d="M52.1688 243.849C56.1785 239.118 56.7146 231.527 56.1213 225.359C55.5281 219.191 54.0986 212.973 55.0778 206.855C55.6496 203.224 57.0576 199.764 57.5365 196.133C58.0154 192.503 57.3364 188.379 54.5132 186.027C51.2682 183.325 46.165 183.961 42.7914 186.499C39.4179 189.036 37.4595 193.017 36.03 196.991C32.8923 205.718 31.7416 215.396 34.3218 224.301C36.902 233.207 42.9487 241.176 51.8257 243.864" fill="#00D2C9"/>
<path id="Vector_62" d="M54.0915 282.66C54.1102 282.479 54.1102 282.297 54.0915 282.117C54.0915 281.759 54.0915 281.23 54.0915 280.551C54.0415 279.193 53.9128 277.235 53.6055 274.833C53.2523 272.012 52.7393 269.213 52.0688 266.45C51.2396 263.053 49.9507 259.785 48.2378 256.736C46.5262 253.688 44.4238 250.877 41.9838 248.374C39.9977 246.33 37.7953 244.509 35.4154 242.942C34.4147 242.227 33.4427 241.72 32.6064 241.234C31.7702 240.748 30.9911 240.383 30.3979 240.083L28.9684 239.475C28.8033 239.401 28.6339 239.336 28.4609 239.282C28.6136 239.383 28.7765 239.467 28.947 239.532L30.3764 240.197C30.9768 240.512 31.713 240.912 32.5207 241.355C33.3283 241.798 34.2932 242.391 35.2796 243.092C40.5003 246.656 44.8313 251.374 47.9376 256.879C51.6185 263.312 52.6334 270.102 53.3625 274.855C53.6912 277.249 53.8628 279.208 53.9486 280.573C53.9914 281.223 54.02 281.745 54.0415 282.131C54.0466 282.308 54.0633 282.485 54.0915 282.66Z" fill="#263238"/>
<path id="Vector_63" d="M88.6563 225.188C96.0682 229.662 96.0467 233.764 94.8102 237.581C93.5737 241.398 89.0209 244.092 85.247 242.656C83.1028 241.841 81.5733 239.983 80.2439 238.124C78.9144 236.266 77.6851 234.265 75.8339 232.928C73.9827 231.592 71.3096 231.077 69.4513 232.406" fill="#00D2C9"/>
<g id="Group_2" opacity="0.5">
<path id="Vector_64" opacity="0.5" d="M88.6563 225.188C96.0682 229.662 96.0467 233.764 94.8102 237.581C93.5737 241.398 89.0209 244.092 85.247 242.656C83.1028 241.841 81.5733 239.983 80.2439 238.124C78.9144 236.266 77.6851 234.265 75.8339 232.928C73.9827 231.592 71.3096 231.077 69.4513 232.406" fill="black"/>
</g>
<path id="Vector_65" d="M94.2099 230.076C92.2658 227.396 87.477 226.617 84.4537 227.932C81.4303 229.247 79.2147 231.92 77.2348 234.565C75.255 237.21 73.3252 240.004 70.5735 241.848C67.8217 243.692 63.9907 244.357 61.2818 242.499C60.4097 241.848 59.6792 241.026 59.1348 240.083C58.5905 239.141 58.2437 238.097 58.1155 237.017C57.8817 234.863 58.0293 232.686 58.5515 230.584C59.2091 227.475 60.2741 224.23 62.7613 222.25C65.5345 220.049 69.387 219.949 72.9249 220.063C76.9847 220.192 81.1087 220.499 84.9183 221.907C88.7278 223.315 92.616 226.353 94.2099 230.084" fill="#00D2C9"/>
<path id="Vector_66" d="M60.2955 276.72C60.2955 276.72 60.2955 276.67 60.2955 276.556C60.2955 276.442 60.2955 276.277 60.2955 276.077C60.2955 275.634 60.2955 275.019 60.3598 274.24C60.4027 272.618 60.4741 270.309 60.5528 267.472C60.6314 264.634 60.76 261.218 60.9673 257.465C61.1746 253.713 61.4533 249.546 62.0251 245.229C62.2707 243.129 62.6818 241.053 63.2545 239.018C63.844 237.141 64.6048 235.323 65.5274 233.586C66.35 232.006 67.3065 230.5 68.3863 229.083C69.3369 227.856 70.3838 226.706 71.5169 225.645C73.1709 224.12 75.0396 222.847 77.0633 221.864C77.4278 221.7 77.778 221.535 78.0282 221.421L78.7429 221.142L79.186 220.964L79.3361 220.892L79.1789 220.928L78.7214 221.078L78.0067 221.328C77.7137 221.435 77.392 221.593 77.0275 221.75C74.9634 222.694 73.0566 223.95 71.3739 225.474C70.22 226.534 69.154 227.686 68.1862 228.919C67.0832 230.34 66.1051 231.853 65.2629 233.443C64.3246 235.195 63.5518 237.03 62.9543 238.925C62.3655 240.974 61.9472 243.068 61.7035 245.186C61.1317 249.517 60.8601 253.677 60.6671 257.451C60.4741 261.225 60.3884 264.598 60.3241 267.457C60.2597 270.316 60.2454 272.632 60.2383 274.233C60.2383 275.012 60.2383 275.627 60.2383 276.07C60.2383 276.27 60.2383 276.427 60.2383 276.549C60.2449 276.609 60.2644 276.668 60.2955 276.72Z" fill="#263238"/>
<path id="Vector_67" d="M57.5866 280.108C57.9395 279.068 58.2119 278.002 58.4014 276.921C58.9167 273.969 59.0297 270.961 58.7374 267.979C58.2868 263.56 57.3397 259.206 55.9141 254.999C54.3917 250.232 52.3404 245.129 50.5607 239.647C49.6855 236.985 48.9695 234.274 48.4165 231.527C47.9252 228.963 47.5721 226.375 47.3587 223.772C47.0253 219.364 46.9465 214.939 47.1228 210.521C47.2515 206.74 47.4516 203.688 47.5803 201.58C47.6375 200.543 47.6875 199.729 47.7232 199.15C47.7232 198.885 47.7232 198.678 47.7232 198.521C47.7326 198.447 47.7326 198.373 47.7232 198.299C47.7172 198.37 47.7172 198.442 47.7232 198.514C47.7232 198.678 47.6875 198.885 47.666 199.143C47.616 199.721 47.5445 200.536 47.4588 201.573C47.2944 203.681 47.0585 206.733 46.9013 210.514C46.6872 214.942 46.7421 219.379 47.0657 223.801C47.2835 226.401 47.6437 228.988 48.1449 231.549C48.6936 234.311 49.4097 237.036 50.2891 239.711C52.0617 245.215 54.1344 250.311 55.664 255.057C57.0896 259.241 58.0485 263.57 58.5229 267.965C58.8281 270.929 58.7488 273.92 58.2871 276.863C58.1084 277.907 57.9369 278.707 57.7939 279.243C57.7296 279.501 57.6795 279.701 57.6438 279.858C57.6185 279.94 57.5993 280.024 57.5866 280.108Z" fill="#263238"/>
<path id="Vector_68" d="M39.2106 283.425H74.0184L74.8117 276.72H39.2106V283.425Z" fill="#455A64"/>
<path id="Vector_69" d="M70.2804 282.66L65.9348 302.758H47.0157L42.9417 282.66H70.2804Z" fill="#455A64"/>
<path id="Vector_70" d="M39.2106 283.425C39.2106 283.51 46.8654 283.568 56.3 283.539C65.7346 283.51 73.3966 283.417 73.3966 283.325C73.3966 283.232 65.7417 283.182 56.3 283.21C46.8583 283.239 39.2106 283.332 39.2106 283.425Z" fill="#455A64"/>
<path id="Vector_71" d="M45.1859 293.345C46.1284 292.63 47.1589 292.039 48.2521 291.587C49.44 291.121 50.7003 290.867 51.9759 290.837C53.541 290.844 55.0924 291.129 56.5574 291.68C58.1441 292.216 59.6308 292.838 61.0746 293.181C62.3547 293.459 63.6749 293.5 64.9699 293.302C65.8441 293.178 66.6918 292.91 67.4786 292.509C67.6893 292.397 67.8901 292.268 68.079 292.123C68.2148 292.023 68.2791 291.973 68.272 291.959C68.2648 291.944 67.9718 292.13 67.4214 292.395C66.6321 292.739 65.7964 292.965 64.9413 293.066C63.6731 293.229 62.3862 293.169 61.1389 292.888C59.7094 292.538 58.2799 291.909 56.6646 291.365C55.1641 290.8 53.5722 290.517 51.9688 290.529C50.6532 290.573 49.357 290.859 48.1449 291.373C47.3324 291.707 46.57 292.152 45.8792 292.695C45.6871 292.836 45.5055 292.992 45.336 293.159C45.2359 293.274 45.1788 293.338 45.1859 293.345Z" fill="#263238"/>
<path id="Vector_72" d="M45.4503 294.689C46.362 294.005 47.3503 293.429 48.395 292.974C49.5325 292.519 50.7438 292.276 51.9687 292.259C53.4836 292.265 54.9857 292.536 56.4073 293.059C57.9368 293.574 59.3806 294.167 60.7529 294.539C61.9684 294.89 63.2352 295.031 64.4981 294.953C65.353 294.903 66.1891 294.682 66.9568 294.303C67.1613 294.194 67.3573 294.07 67.5429 293.931C67.6716 293.831 67.7287 293.781 67.7216 293.767C67.7144 293.753 67.4357 293.938 66.8996 294.181C66.135 294.511 65.3158 294.695 64.4838 294.725C63.2482 294.76 62.015 294.596 60.8315 294.239C59.4878 293.86 58.0583 293.267 56.5431 292.745C55.0881 292.209 53.5477 291.943 51.9973 291.959C50.7304 291.992 49.4823 292.274 48.3236 292.788C47.5532 293.128 46.832 293.57 46.1793 294.103C45.9435 294.289 45.7719 294.446 45.6576 294.553C45.5432 294.66 45.4432 294.675 45.4503 294.689Z" fill="white"/>
<path id="Vector_73" d="M44.8356 292.009C45.8159 291.279 46.8728 290.658 47.9876 290.157C49.1982 289.635 50.4889 289.324 51.8043 289.235C53.4208 289.205 55.0279 289.489 56.5359 290.072C58.0634 290.669 59.6242 291.177 61.2103 291.594C62.5415 291.827 63.9031 291.827 65.2343 291.594C66.1325 291.453 67.0046 291.178 67.8216 290.779C68.0401 290.663 68.2502 290.532 68.4506 290.386C68.5864 290.286 68.6507 290.229 68.6436 290.222C68.6364 290.215 68.3363 290.4 67.7645 290.658C66.9451 291.01 66.082 291.25 65.1985 291.373C63.8927 291.562 62.5647 291.535 61.2675 291.294C59.7009 290.861 58.1575 290.348 56.6431 289.757C55.0977 289.158 53.4467 288.878 51.79 288.935C49.5291 289.12 47.3697 289.954 45.5718 291.337C45.3745 291.485 45.1882 291.648 45.0143 291.823C44.8928 291.937 44.8285 292.001 44.8356 292.009Z" fill="white"/>
<path id="Vector_74" d="M38.9033 283.453C38.9033 283.546 46.7655 283.618 56.3859 283.618C66.0062 283.618 73.8755 283.546 73.8755 283.453C73.8755 283.36 66.0134 283.282 56.3859 283.282C46.7583 283.282 38.9033 283.36 38.9033 283.453Z" fill="#263238"/>
</g>
<g id="Floor">
<path id="Vector_75" d="M315 302.758C315 302.866 244.477 302.944 157.507 302.944C70.5376 302.944 0 302.866 0 302.758C0 302.651 70.5091 302.572 157.507 302.572C244.505 302.572 315 302.658 315 302.758Z" fill="#263238"/>
</g>
<g id="Sofa">
<path id="Vector_76" d="M287.876 302.58H296.188V270.166H287.876V302.58Z" fill="#263238"/>
<path id="Vector_77" d="M163.082 302.58H171.395V270.166H163.082V302.58Z" fill="#263238"/>
<path id="Vector_78" d="M145.349 192.603C147.215 189.372 165.555 179.673 165.555 179.673C165.555 179.673 168.929 163.863 177.891 160.89C182.266 159.46 281.636 162.319 281.636 162.319C285.674 164.756 288.44 179.673 288.44 179.673C295.588 181.474 312.377 191.23 313.306 195.276C314.235 199.321 314.428 273.347 313.192 277.385C307.388 279.808 301.756 280.13 296.224 277.943L164.404 277.364C164.404 277.364 147.737 283.639 145.349 277.021C144.227 274.011 143.448 195.826 145.349 192.603Z" fill="#00D2C9"/>
<path id="Vector_79" d="M164.369 248.552C164.369 248.445 193.494 248.367 229.41 248.367C265.326 248.367 294.451 248.445 294.451 248.552C294.451 248.66 265.333 248.738 229.41 248.738C193.487 248.738 164.369 248.66 164.369 248.552Z" fill="#263238"/>
<path id="Vector_80" d="M303.207 276.692C303.207 276.692 303.207 276.527 303.207 276.199C303.207 275.87 303.207 275.377 303.207 274.769C303.207 273.468 303.157 271.567 303.121 269.094C303.057 264.127 302.964 256.879 302.849 247.738C302.735 238.596 302.621 227.532 302.471 214.953C302.471 213.387 302.471 211.779 302.471 210.164C302.471 208.549 302.564 206.905 302.471 205.254C302.389 203.582 302.066 201.93 301.513 200.35C300.909 198.743 300.091 197.224 299.083 195.833C296.976 192.95 294.342 190.491 291.321 188.586C288.183 186.576 284.855 184.878 281.386 183.518H281.322V183.454L278.348 176.307L276.833 172.669C276.576 172.061 276.326 171.454 276.068 170.839C275.833 170.23 275.521 169.653 275.139 169.123C274.56 168.325 273.818 167.658 272.964 167.165C272.109 166.673 271.16 166.366 270.179 166.265C269.521 166.2 268.828 166.186 268.156 166.143L259.922 165.714C248.837 165.157 237.358 164.628 225.615 164.177C219.663 163.954 213.786 163.768 207.982 163.62C202.178 163.491 196.468 163.384 190.864 163.484C189.435 163.484 188.069 163.548 186.683 163.627C185.968 163.627 185.303 163.727 184.624 163.792C183.95 163.846 183.283 163.976 182.637 164.177C181.375 164.647 180.249 165.42 179.357 166.429C178.447 167.414 177.653 168.5 176.991 169.667C175.7 171.985 174.651 174.431 173.86 176.964C173.064 179.432 172.424 181.949 171.945 184.498V184.605H171.838C170.044 185.096 168.322 185.817 166.713 186.749C165.118 187.645 163.591 188.658 162.146 189.779C160.717 190.852 159.434 192.106 158.329 193.51C157.807 194.205 157.406 194.984 157.143 195.812C156.904 196.641 156.746 197.49 156.671 198.349C156.406 201.801 156.978 205.182 157.107 208.491C157.164 210.164 157.107 211.779 157.071 213.394C157.035 215.01 157.071 216.582 157.021 218.147C156.921 230.634 157.021 241.612 157.078 250.697C157.136 259.781 157.078 266.971 157.078 271.896C157.043 274.347 157.014 276.234 156.993 277.521C156.993 278.157 156.993 278.636 156.993 278.95C156.993 279.265 156.993 279.436 156.993 279.436C156.993 279.436 156.993 279.272 156.993 278.95C156.993 278.629 156.993 278.136 156.993 277.521C156.993 276.234 156.993 274.347 156.993 271.889C156.993 266.971 156.993 259.781 156.914 250.697C156.835 241.612 156.7 230.641 156.778 218.147C156.778 216.58 156.792 214.993 156.821 213.387C156.821 211.786 156.907 210.142 156.821 208.506C156.692 205.218 156.106 201.837 156.371 198.328C156.446 197.442 156.606 196.566 156.85 195.712C157.124 194.851 157.54 194.042 158.079 193.317C159.202 191.892 160.504 190.616 161.953 189.522C163.411 188.386 164.952 187.361 166.563 186.456C168.197 185.499 169.949 184.756 171.773 184.247L171.645 184.383C172.122 181.817 172.762 179.284 173.56 176.8C174.357 174.241 175.416 171.772 176.719 169.431C177.396 168.241 178.204 167.131 179.128 166.122C180.063 165.073 181.241 164.271 182.559 163.784C183.227 163.571 183.918 163.435 184.617 163.377C185.332 163.305 186.004 163.241 186.697 163.213C188.091 163.127 189.492 163.084 190.893 163.062C196.511 162.962 202.221 163.062 208.046 163.198C213.872 163.334 219.732 163.527 225.686 163.749C237.451 164.199 248.93 164.735 259.994 165.292L268.228 165.728C268.942 165.771 269.578 165.786 270.272 165.85C270.962 165.918 271.638 166.087 272.28 166.35C273.562 166.869 274.673 167.735 275.489 168.852C275.881 169.407 276.205 170.007 276.454 170.639C276.711 171.253 276.962 171.861 277.219 172.468C277.719 173.691 278.227 174.899 278.727 176.106L281.693 183.254L281.6 183.161C285.093 184.537 288.444 186.249 291.607 188.271C294.664 190.203 297.332 192.694 299.469 195.612C300.489 197.028 301.315 198.573 301.927 200.207C302.486 201.821 302.813 203.505 302.9 205.211C302.992 206.883 302.935 208.534 302.9 210.15C302.864 211.765 302.842 213.359 302.9 214.931C303.014 227.503 303.121 238.56 303.2 247.709C303.278 256.858 303.335 264.105 303.371 269.065C303.371 271.546 303.371 273.447 303.407 274.741V276.17C303.214 276.535 303.207 276.692 303.207 276.692Z" fill="#263238"/>
<g id="Group_3" opacity="0.4">
<path id="Vector_81" opacity="0.4" d="M302.671 279.472C303.786 256.272 302.842 234.672 302.671 211.45C302.599 203.588 303.614 197.699 294.637 190.38C289.705 186.363 281.529 182.839 281.529 182.839C279.199 179.559 278.863 173.784 276.669 170.41C273.395 165.364 266.333 164.878 260.315 164.921L196.946 165.4C191.908 165.435 186.318 165.693 182.737 169.238C179.414 172.533 178.878 177.65 178.685 182.332C178.432 188.25 178.406 194.17 178.606 200.093C178.706 203.009 178.971 206.197 180.979 208.313C182.645 210.071 185.139 210.886 187.555 211.114C205.423 212.765 257.406 212.458 279.756 212.458L296.016 227.761L296.159 277.964L302.671 279.472Z" fill="black"/>
</g>
<path id="Vector_82" d="M170.365 227.968C170.365 227.861 197.947 227.782 231.954 227.782C265.962 227.782 293.543 227.861 293.543 227.968C293.543 228.075 265.976 228.154 231.954 228.154C197.933 228.154 170.365 228.068 170.365 227.968Z" fill="#263238"/>
<path id="Vector_83" d="M164.369 277.364C164.369 277.364 164.369 277.049 164.369 276.434C164.369 275.82 164.369 274.905 164.369 273.726C164.369 271.331 164.369 267.843 164.333 263.383C164.333 254.442 164.333 241.62 164.297 226.074V226.01L164.34 225.967L177.656 212.337L177.706 212.287H177.777H227.323H279.892H279.956L279.999 212.33C283.752 215.639 287.318 218.848 290.656 221.986C292.314 223.565 293.944 225.095 295.402 226.717C295.581 226.932 295.759 227.132 295.917 227.36C296.003 227.476 296.079 227.597 296.145 227.725C296.184 227.803 296.208 227.888 296.217 227.975V229.769C296.217 230.827 296.217 231.863 296.217 232.893C296.217 241.076 296.217 248.238 296.217 254.163V267.958C296.217 269.544 296.217 270.767 296.217 271.603C296.217 272.01 296.217 272.318 296.217 272.539C296.223 272.644 296.223 272.749 296.217 272.854C296.217 272.854 296.217 272.746 296.217 272.539C296.217 272.332 296.217 272.01 296.217 271.603C296.217 270.767 296.217 269.544 296.181 267.958C296.181 264.756 296.124 260.096 296.081 254.185C296.038 248.274 296.009 241.098 295.967 232.914C295.967 231.885 295.967 230.848 295.967 229.791C295.967 229.269 295.967 228.733 295.967 228.197V227.997C295.954 227.953 295.94 227.91 295.924 227.868C295.86 227.759 295.791 227.654 295.716 227.553C295.566 227.339 295.388 227.139 295.216 226.932C293.787 225.331 292.143 223.801 290.485 222.236C287.147 219.105 283.566 215.903 279.821 212.601L279.928 212.644H227.359H177.813L177.934 212.587C173.196 217.418 168.7 222.007 164.59 226.167L164.633 226.067C164.597 241.612 164.569 254.435 164.547 263.376C164.547 267.836 164.512 271.324 164.497 273.718C164.497 274.898 164.497 275.806 164.497 276.427C164.497 277.049 164.369 277.364 164.369 277.364Z" fill="#263238"/>
<path id="Vector_84" d="M281.593 184.262C281.693 184.262 281.386 190.58 280.878 198.371C280.371 206.161 279.921 212.458 279.82 212.458C279.72 212.458 280.028 206.133 280.535 198.342C281.043 190.551 281.493 184.254 281.593 184.262Z" fill="#263238"/>
<path id="Vector_85" d="M146.722 193.568C148.309 193.43 149.907 193.505 151.475 193.789C153.062 193.951 154.62 194.326 156.106 194.904C156.106 195.004 154.012 194.518 151.425 194.154C148.837 193.789 146.715 193.682 146.722 193.568Z" fill="#263238"/>
<path id="Vector_86" d="M167.235 180.323C167.874 180.221 168.53 180.331 169.1 180.638C169.72 180.834 170.254 181.234 170.615 181.774C170.045 181.542 169.489 181.277 168.95 180.981C168.365 180.798 167.792 180.579 167.235 180.323Z" fill="#263238"/>
<path id="Vector_87" d="M303.593 197.699C305.823 195.867 308.486 194.637 311.326 194.125C311.326 194.232 309.511 194.768 307.381 195.769C305.251 196.77 303.657 197.792 303.593 197.699Z" fill="#263238"/>
</g>
<g id="Character">
<path id="Vector_88" d="M158.594 193.532C160.095 190.816 162.732 188.95 165.276 187.171C169.608 184.154 174.182 181.038 179.435 180.445C184.939 179.823 190.464 182.139 194.802 185.584C204.923 193.625 211.92 209.885 207.789 222.15C198.998 225.223 189.099 227.625 179.807 226.924C175.754 226.624 171.566 225.888 168.257 223.522C164.161 220.599 162.074 215.66 160.18 211.029C157.9 205.404 155.656 198.835 158.594 193.532Z" fill="#F5F5F5"/>
<path id="Vector_89" d="M178.721 224.28C178.781 224.188 178.853 224.104 178.935 224.03C179.092 223.873 179.314 223.637 179.65 223.365C180.519 222.575 181.451 221.858 182.437 221.221C185.708 219.148 189.321 217.672 193.108 216.861C196.884 216.063 200.723 215.601 204.58 215.481C206.052 215.417 207.246 215.381 208.075 215.374H209.026C209.137 215.357 209.25 215.357 209.361 215.374C208.939 215.447 208.511 215.487 208.082 215.496L204.594 215.717C200.75 215.917 196.926 216.414 193.158 217.204C189.408 218.008 185.818 219.434 182.537 221.421C181.541 222.031 180.586 222.707 179.678 223.444C179.377 223.742 179.057 224.022 178.721 224.28Z" fill="#00D2C9"/>
<path id="Vector_90" d="M173.417 225.645C173.517 224.926 173.822 224.251 174.296 223.701C174.672 223.086 175.215 222.59 175.862 222.271C175.476 222.853 175.054 223.41 174.596 223.937C174.24 224.531 173.846 225.101 173.417 225.645Z" fill="#00D2C9"/>
<path id="Vector_91" d="M201.857 204.625C202.666 204.073 203.587 203.705 204.553 203.546C205.52 203.387 206.509 203.44 207.453 203.703C207.453 203.817 206.159 203.645 204.594 203.91C203.029 204.174 201.907 204.732 201.857 204.625Z" fill="#00D2C9"/>
<path id="Vector_92" d="M168.729 215.46C168.729 215.46 168.793 215.36 168.943 215.203L169.608 214.488C169.901 214.188 170.265 213.838 170.708 213.444C171.151 213.051 171.63 212.587 172.209 212.122C173.546 211.004 174.942 209.959 176.391 208.992C178.172 207.818 180.022 206.751 181.93 205.797C183.848 204.865 185.82 204.047 187.834 203.345C189.475 202.781 191.145 202.303 192.837 201.916C193.551 201.737 194.223 201.63 194.802 201.523C195.381 201.415 195.889 201.337 196.296 201.287L197.247 201.18C197.358 201.157 197.472 201.157 197.583 201.18C197.479 201.22 197.371 201.248 197.261 201.265L196.325 201.444C195.91 201.515 195.417 201.608 194.845 201.744C194.273 201.88 193.609 201.987 192.901 202.187C191.472 202.53 189.77 203.031 187.898 203.667C185.903 204.379 183.949 205.2 182.044 206.126C180.151 207.077 178.31 208.127 176.526 209.27C174.904 210.35 173.474 211.415 172.331 212.322C171.738 212.765 171.244 213.216 170.794 213.595C170.344 213.973 169.965 214.309 169.658 214.588L168.943 215.217C168.881 215.306 168.809 215.388 168.729 215.46Z" fill="#00D2C9"/>
<path id="Vector_93" d="M161.681 214.502C161.994 213.606 162.576 212.827 163.347 212.272C164.082 211.673 164.987 211.318 165.934 211.257C165.977 211.379 164.755 211.693 163.575 212.572C162.396 213.452 161.788 214.581 161.681 214.502Z" fill="#00D2C9"/>
<path id="Vector_94" d="M164.09 206.919C164.27 206.598 164.478 206.295 164.712 206.011C164.962 205.658 165.232 205.319 165.519 204.996C165.855 204.61 166.234 204.16 166.67 203.71C167.698 202.627 168.804 201.621 169.979 200.701C172.867 198.434 176.127 196.687 179.614 195.54C181.034 195.069 182.486 194.704 183.96 194.447C184.589 194.318 185.16 194.268 185.661 194.204C186.09 194.144 186.521 194.105 186.954 194.089C187.323 194.053 187.694 194.053 188.062 194.089C187.704 194.18 187.338 194.235 186.969 194.254C186.618 194.289 186.19 194.332 185.689 194.425C185.189 194.518 184.624 194.575 184.01 194.718C182.556 195.009 181.123 195.396 179.721 195.876C178.003 196.467 176.331 197.183 174.718 198.02C173.126 198.885 171.601 199.87 170.158 200.965C168.982 201.864 167.867 202.841 166.82 203.888C166.356 204.324 165.991 204.76 165.641 205.125C165.291 205.489 165.019 205.84 164.79 206.097C164.579 206.389 164.345 206.664 164.09 206.919Z" fill="#00D2C9"/>
<path id="Vector_95" d="M157.929 205.525C158.298 204.728 158.853 204.032 159.547 203.493C160.241 202.955 161.054 202.591 161.917 202.43C161.953 202.538 160.866 202.923 159.773 203.788C158.679 204.653 158.022 205.589 157.929 205.525Z" fill="#00D2C9"/>
<path id="Vector_96" d="M193.065 196.519C193.466 196.181 193.92 195.913 194.409 195.726C196.726 194.676 199.297 194.314 201.814 194.683C202.337 194.724 202.85 194.854 203.329 195.068C199.849 194.538 196.289 195.035 193.087 196.498L193.065 196.519Z" fill="#00D2C9"/>
<path id="Vector_97" d="M179.385 191.116C179.55 190.956 179.735 190.819 179.936 190.709C180.3 190.458 180.843 190.13 181.537 189.751C183.353 188.782 185.271 188.015 187.255 187.464C189.23 186.912 191.26 186.581 193.308 186.477C193.93 186.442 194.553 186.442 195.174 186.477C195.414 186.463 195.656 186.488 195.889 186.549C195.889 186.606 194.917 186.613 193.366 186.749C189.308 187.103 185.35 188.206 181.694 190.001C180.25 190.673 179.421 191.173 179.385 191.116Z" fill="#00D2C9"/>
<path id="Vector_98" d="M159.816 196.727C160.247 196.204 160.744 195.741 161.295 195.347C162.586 194.34 164.001 193.501 165.505 192.853C167.008 192.209 168.585 191.758 170.201 191.509C170.863 191.371 171.542 191.328 172.216 191.38C171.567 191.546 170.908 191.675 170.244 191.766C167.079 192.395 164.083 193.686 161.452 195.555C160.927 195.973 160.381 196.364 159.816 196.727Z" fill="#00D2C9"/>
<path id="Vector_99" d="M157.4 196.255C157.343 196.169 157.757 195.798 158.315 195.426C158.872 195.054 159.38 194.811 159.437 194.897C159.494 194.983 159.08 195.362 158.522 195.733C157.965 196.105 157.457 196.341 157.4 196.255Z" fill="#00D2C9"/>
<path id="Vector_100" d="M159.98 191.959C160.26 191.738 160.559 191.542 160.874 191.373C161.46 191.009 162.303 190.508 163.39 189.908C165.534 188.707 168.55 187.135 171.966 185.548C175.383 183.961 178.521 182.689 180.822 181.831C181.973 181.396 182.909 181.067 183.567 180.852C183.896 180.716 184.238 180.615 184.589 180.552C184.278 180.726 183.953 180.872 183.617 180.988L180.915 182.075C178.642 182.997 175.519 184.312 172.124 185.891C168.729 187.471 165.691 189 163.547 190.144L160.974 191.495C160.658 191.681 160.326 191.837 159.98 191.959Z" fill="#00D2C9"/>
<path id="Vector_101" d="M185.246 226.932C185.532 226.827 185.83 226.76 186.132 226.731L188.563 226.303C190.621 225.945 193.451 225.423 196.568 224.766C199.684 224.108 202.479 223.429 204.501 222.929L206.896 222.329C207.187 222.242 207.486 222.182 207.789 222.15C207.517 222.282 207.232 222.388 206.939 222.464C206.381 222.65 205.573 222.893 204.566 223.179C202.557 223.751 199.763 224.473 196.639 225.13C193.516 225.788 190.671 226.274 188.605 226.56C187.569 226.703 186.733 226.81 186.154 226.867C185.854 226.916 185.55 226.937 185.246 226.932Z" fill="#263238"/>
<path id="Vector_102" d="M159.137 192.353C159.194 192.487 159.233 192.629 159.251 192.774L159.501 193.996C159.601 194.532 159.73 195.183 159.93 195.926C160.13 196.67 160.302 197.527 160.609 198.449C160.752 198.907 160.895 199.393 161.052 199.879C161.209 200.365 161.417 200.894 161.603 201.43C161.967 202.502 162.467 203.61 162.968 204.789C164.124 207.31 165.469 209.74 166.992 212.058C168.548 214.351 170.273 216.525 172.152 218.562C173.053 219.477 173.882 220.363 174.739 221.114C175.161 221.492 175.554 221.878 175.955 222.214L177.127 223.186C177.841 223.815 178.556 224.309 179.192 224.773C179.828 225.238 180.357 225.617 180.808 225.91L181.844 226.624C181.966 226.702 182.081 226.791 182.187 226.889C182.05 226.839 181.921 226.771 181.801 226.689L180.729 226.045C180.264 225.767 179.7 225.416 179.078 224.959C178.456 224.501 177.706 224.03 176.934 223.401L175.74 222.45C175.326 222.114 174.932 221.735 174.504 221.35C173.632 220.635 172.788 219.72 171.88 218.812C168.002 214.764 164.858 210.072 162.589 204.946C162.096 203.753 161.603 202.638 161.252 201.544C161.066 201.001 160.866 200.486 160.716 199.979C160.566 199.471 160.423 198.978 160.295 198.549C160.002 197.62 159.837 196.755 159.666 195.998C159.494 195.24 159.373 194.568 159.294 194.054C159.215 193.539 159.165 193.139 159.115 192.817C159.111 192.662 159.119 192.507 159.137 192.353Z" fill="#263238"/>
<path id="Vector_103" d="M166.434 218.147C166.632 216.683 167.291 215.319 168.314 214.252C168.079 214.935 167.772 215.592 167.399 216.211C167.144 216.887 166.821 217.536 166.434 218.147Z" fill="#263238"/>
<path id="Vector_104" d="M165.648 215.61C165.562 215.553 165.884 214.938 166.491 214.359C167.099 213.78 167.714 213.48 167.771 213.566C167.828 213.652 167.32 214.073 166.749 214.631C166.177 215.188 165.734 215.667 165.648 215.61Z" fill="#263238"/>
<path id="Vector_105" d="M165.362 197.084C164.527 197.719 163.758 198.438 163.068 199.228C162.447 200.081 161.964 201.027 161.638 202.03C161.572 201.71 161.597 201.379 161.71 201.072C161.904 200.318 162.252 199.613 162.732 199C163.371 198.086 164.296 197.412 165.362 197.084Z" fill="#263238"/>
<path id="Vector_106" d="M163.218 195.326C162.964 196.056 162.67 196.772 162.339 197.47C162.116 198.201 161.849 198.917 161.538 199.614C161.491 198.824 161.646 198.034 161.988 197.32C162.219 196.56 162.642 195.873 163.218 195.326Z" fill="#263238"/>
<path id="Vector_107" d="M182.259 198.256C182.55 198.157 182.852 198.093 183.159 198.063C183.511 197.996 183.867 197.95 184.224 197.927C184.699 197.88 185.176 197.856 185.654 197.856C186.231 197.842 186.808 197.858 187.383 197.906C188.012 197.906 188.67 198.042 189.37 198.142C192.389 198.657 195.262 199.812 197.797 201.53C198.369 201.937 198.919 202.316 199.391 202.731C199.844 203.094 200.276 203.483 200.685 203.896C201.029 204.226 201.355 204.575 201.664 204.939C201.909 205.202 202.135 205.482 202.343 205.775C202.542 206.01 202.715 206.267 202.857 206.54C202.8 206.583 202.035 205.518 200.499 204.081C200.113 203.731 199.691 203.367 199.198 202.974C198.705 202.58 198.176 202.209 197.611 201.816C195.094 200.158 192.27 199.023 189.306 198.478C188.627 198.371 187.976 198.249 187.362 198.213C186.747 198.178 186.175 198.128 185.646 198.113C183.559 198.092 182.266 198.335 182.259 198.256Z" fill="#263238"/>
<path id="Vector_108" d="M175.454 192.195C175.742 192.1 176.039 192.033 176.34 191.995C176.687 191.925 177.038 191.877 177.391 191.852C177.865 191.794 178.343 191.766 178.821 191.766C179.393 191.743 179.966 191.755 180.536 191.802C181.19 191.839 181.841 191.91 182.487 192.017C183.971 192.27 185.426 192.667 186.833 193.203C188.231 193.767 189.569 194.469 190.828 195.297C191.393 195.697 191.943 196.062 192.408 196.469C192.854 196.826 193.278 197.208 193.68 197.613C194.028 197.932 194.357 198.271 194.666 198.628C194.909 198.886 195.134 199.161 195.338 199.45C195.533 199.67 195.706 199.91 195.853 200.165C195.789 200.215 195.038 199.164 193.516 197.756C193.137 197.413 192.715 197.041 192.229 196.67C191.743 196.298 191.214 195.955 190.65 195.54C188.16 193.921 185.369 192.822 182.444 192.31C181.773 192.21 181.136 192.095 180.529 192.067C179.969 192.007 179.405 191.981 178.842 191.988C176.734 192.024 175.461 192.274 175.454 192.195Z" fill="#263238"/>
<path id="Vector_109" d="M177.57 172.347C177.57 172.347 202.093 149.475 206.71 143.986C209.769 140.341 215.63 138.826 219.225 138.268L231.954 136.224L258.4 138.604C258.486 138.581 258.578 138.581 258.664 138.604H258.879V138.676C262.452 140.312 280.557 159.067 280.557 159.067L285.889 145.022L298.432 147.788L293.572 176.993C290.456 182.432 285.71 184.655 280.571 181.16L262.846 167.58C262.131 176.721 260.43 200.937 261.966 205.84C263.689 211.329 212.17 201.244 212.17 201.244L216.352 163.949L196.596 179.03L196.303 179.394C200.106 184.347 203.579 189.494 204.659 194.761C202.7 198.063 198.712 199.307 193.416 199.228L176.705 180.509L177.57 172.347Z" fill="#455A64"/>
<path id="Vector_110" d="M261.244 186.256C261.227 186.14 261.227 186.022 261.244 185.906C261.244 185.634 261.28 185.298 261.302 184.905C261.366 183.976 261.452 182.761 261.559 181.224C261.809 178.065 262.145 173.805 262.517 169.073C262.888 164.342 263.196 160.096 263.439 156.923C263.539 155.415 263.617 154.171 263.682 153.242C263.682 152.849 263.717 152.527 263.732 152.241C263.731 152.125 263.748 152.01 263.782 151.898C263.794 152.015 263.794 152.132 263.782 152.248C263.782 152.52 263.782 152.849 263.782 153.249C263.782 154.121 263.732 155.393 263.66 156.937C263.51 160.053 263.217 164.349 262.838 169.088C262.459 173.826 262.081 178.108 261.78 181.238C261.623 182.746 261.495 183.983 261.402 184.905C261.352 185.305 261.309 185.62 261.28 185.906C261.284 186.023 261.272 186.141 261.244 186.256Z" fill="#263238"/>
<path id="Vector_111" d="M218.553 160.79C218.489 160.754 219.118 159.86 219.761 158.252C220.607 156.162 220.964 153.905 220.804 151.656C220.645 149.406 219.972 147.223 218.839 145.273C217.981 143.772 217.231 142.985 217.288 142.935C217.491 143.091 217.673 143.271 217.831 143.471C218.292 143.991 218.706 144.551 219.068 145.144C220.289 147.104 221.013 149.332 221.176 151.636C221.339 153.939 220.937 156.247 220.004 158.36C219.726 158.993 219.396 159.603 219.018 160.182C218.89 160.404 218.734 160.608 218.553 160.79Z" fill="#263238"/>
<path id="Vector_112" d="M183.888 172.376C184.064 172.281 184.255 172.221 184.453 172.197C184.98 172.094 185.517 172.053 186.054 172.075C187.845 172.193 189.573 172.787 191.057 173.798C192.512 174.796 193.824 175.986 194.959 177.336C195.466 177.858 195.919 178.43 196.31 179.044C195.758 178.574 195.242 178.063 194.767 177.514C193.593 176.237 192.282 175.094 190.857 174.105C189.427 173.138 187.784 172.532 186.068 172.34C185.341 172.31 184.614 172.322 183.888 172.376Z" fill="#263238"/>
<path id="Vector_113" d="M189.027 168.566C189.609 168.874 190.145 169.261 190.621 169.717C193.022 171.798 194.853 174.457 195.939 177.443C196.194 178.048 196.363 178.685 196.439 179.337C196.17 178.752 195.931 178.153 195.724 177.543C194.525 174.66 192.736 172.06 190.471 169.91C189.966 169.488 189.484 169.04 189.027 168.566Z" fill="#263238"/>
<path id="Vector_114" d="M283.294 173.476C283.294 173.476 283.123 173.333 282.865 173.04C282.502 172.62 282.175 172.171 281.886 171.697C281.449 170.995 281.076 170.256 280.771 169.488C280.407 168.544 280.132 167.567 279.949 166.572C279.785 165.573 279.716 164.561 279.742 163.548C279.772 162.721 279.875 161.899 280.049 161.09C280.165 160.547 280.323 160.014 280.521 159.496C280.664 159.131 280.75 158.931 280.778 158.946C280.807 158.96 280.542 159.782 280.307 161.14C280.011 162.917 280.011 164.73 280.307 166.507C280.619 168.281 281.228 169.989 282.108 171.561C282.787 172.761 283.337 173.433 283.294 173.476Z" fill="#263238"/>
<path id="Vector_115" d="M285.796 129.57L289.62 128.026L289.241 130.763L287.625 132.014L288.891 133.315L288.233 138.082L285.331 134.416C285.074 134.089 284.903 133.704 284.834 133.294C284.766 132.884 284.801 132.464 284.938 132.071L285.796 129.57Z" fill="#FFBE9D"/>
<path id="Vector_116" d="M301.113 138.111L296.46 147.374L287.726 145.451V134.409L300.662 132.193L301.113 138.111Z" fill="#FFBE9D"/>
<path id="Vector_117" d="M288.219 129.062L289.141 122.387C289.168 122.194 289.249 122.012 289.376 121.864C289.503 121.716 289.669 121.607 289.855 121.55L300.326 118.041C300.497 117.983 300.679 117.97 300.856 118.005C301.032 118.039 301.197 118.12 301.333 118.237C301.469 118.355 301.572 118.507 301.631 118.677C301.69 118.847 301.703 119.029 301.67 119.206L297.382 142.256C297.345 142.459 297.248 142.647 297.104 142.794C296.96 142.942 296.776 143.043 296.574 143.086L287.282 145.022C287.119 145.056 286.95 145.05 286.79 145.005C286.629 144.96 286.482 144.876 286.361 144.762C286.239 144.648 286.147 144.506 286.092 144.348C286.038 144.191 286.022 144.022 286.046 143.857L288.219 129.062Z" fill="#263238"/>
<path id="Vector_118" d="M295.566 125.51C295.484 125.637 295.366 125.737 295.228 125.797C295.089 125.857 294.935 125.875 294.787 125.848C294.638 125.821 294.5 125.75 294.392 125.645C294.283 125.54 294.208 125.405 294.176 125.257C294.144 125.109 294.157 124.955 294.212 124.815C294.268 124.674 294.364 124.553 294.488 124.467C294.612 124.381 294.759 124.333 294.911 124.331C295.062 124.328 295.21 124.37 295.337 124.452C295.507 124.563 295.625 124.736 295.668 124.934C295.711 125.132 295.674 125.339 295.566 125.51Z" fill="#EBEBEB"/>
<path id="Vector_119" d="M301.213 121.558C301.213 121.558 302.778 121.558 302.642 123.773C302.511 125.793 302.027 127.774 301.213 129.627C301.389 129.918 301.482 130.252 301.482 130.592C301.482 130.932 301.389 131.266 301.213 131.557C301.213 131.557 302.37 131.471 302.306 133.494C302.492 133.718 302.63 133.977 302.712 134.256C302.794 134.536 302.818 134.828 302.783 135.117C302.749 135.406 302.655 135.685 302.509 135.937C302.364 136.188 302.168 136.408 301.934 136.581C301.934 136.581 302.978 137.932 301.291 139.312C300.721 139.713 300.07 139.985 299.383 140.108C298.697 140.232 297.992 140.204 297.317 140.026L301.213 121.558Z" fill="#FFBE9D"/>
<path id="Vector_120" d="M300.448 129.727C299.204 130.556 297.803 131.35 296.695 132.257C296.331 132.55 295.924 132.7 295.766 133.144C295.675 133.359 295.663 133.6 295.733 133.824C295.802 134.047 295.948 134.239 296.145 134.366C296.343 134.43 296.552 134.45 296.758 134.426C296.964 134.401 297.162 134.332 297.339 134.223C298.712 133.503 300.002 132.633 301.184 131.628" fill="#FFBE9D"/>
<path id="Vector_121" d="M300.662 132.193C299.419 133.022 298.011 133.815 296.91 134.723C296.545 135.016 296.138 135.166 295.974 135.609C295.885 135.826 295.875 136.067 295.945 136.29C296.016 136.514 296.162 136.705 296.359 136.831C296.556 136.895 296.764 136.915 296.968 136.89C297.173 136.865 297.37 136.797 297.546 136.689C298.921 135.97 300.211 135.1 301.391 134.094" fill="#FFBE9D"/>
<path id="Vector_122" d="M300.67 134.802C299.426 135.631 298.018 136.424 296.917 137.332C296.553 137.625 296.145 137.775 295.988 138.218C295.896 138.434 295.883 138.675 295.952 138.899C296.022 139.123 296.169 139.315 296.367 139.44C296.568 139.51 296.782 139.534 296.993 139.511C297.205 139.487 297.408 139.417 297.589 139.304C298.965 138.585 300.257 137.714 301.441 136.71" fill="#FFBE9D"/>
<path id="Vector_123" d="M301.105 131.7C301.07 131.65 300.212 132.314 299.118 133.058C298.025 133.801 297.089 134.344 297.117 134.401C298.608 133.765 299.962 132.848 301.105 131.7Z" fill="#EB996E"/>
<path id="Vector_124" d="M302.035 133.63C301.999 133.579 301.013 134.344 299.776 135.18C298.54 136.017 297.503 136.71 297.532 136.767C298.375 136.384 299.172 135.904 299.905 135.338C300.676 134.849 301.39 134.276 302.035 133.63Z" fill="#EB996E"/>
<path id="Vector_125" d="M302.006 136.517C301.242 136.875 300.51 137.298 299.819 137.782C299.086 138.195 298.393 138.674 297.746 139.212C298.513 138.854 299.247 138.431 299.94 137.947C300.672 137.535 301.363 137.056 302.006 136.517Z" fill="#EB996E"/>
<path id="Vector_126" d="M301.484 129.069C301.441 129.019 300.369 129.834 298.976 130.735C297.582 131.635 296.403 132.293 296.438 132.35C296.725 132.272 296.999 132.154 297.253 132C297.885 131.671 298.501 131.311 299.097 130.921C299.697 130.533 300.277 130.116 300.834 129.67C301.077 129.501 301.296 129.298 301.484 129.069Z" fill="#EB996E"/>
<path id="Vector_127" d="M212.685 282.381L211.599 296.426C211.599 296.426 193.544 300.507 192.93 303.659L226.179 308.09L229.396 283.267L212.685 282.381Z" fill="#455A64"/>
<g id="Group_4" opacity="0.6">
<path id="Vector_128" opacity="0.6" d="M222.07 296.354C222.373 296.496 222.614 296.746 222.746 297.054C222.878 297.363 222.891 297.709 222.784 298.027C222.651 298.333 222.407 298.578 222.1 298.711C221.793 298.843 221.448 298.854 221.133 298.741C220.806 298.595 220.545 298.331 220.403 298.001C220.262 297.671 220.249 297.3 220.368 296.962C220.536 296.649 220.818 296.414 221.156 296.306C221.493 296.198 221.859 296.226 222.177 296.383" fill="white"/>
</g>
<g id="Group_5" opacity="0.6">
<path id="Vector_129" opacity="0.6" d="M226.179 308.09L226.444 305.381L194.466 302.144C194.466 302.144 192.901 302.594 192.93 303.659L226.179 308.09Z" fill="white"/>
</g>
<path id="Vector_130" d="M211.106 296.183C211.106 296.347 211.892 296.526 212.621 297.155C213.35 297.784 213.686 298.527 213.843 298.477C214 298.427 213.886 297.462 212.992 296.719C212.099 295.975 211.063 296.025 211.106 296.183Z" fill="#263238"/>
<path id="Vector_131" d="M207.403 297.162C207.339 297.312 208.011 297.684 208.468 298.441C208.925 299.199 208.99 299.949 209.183 299.964C209.376 299.978 209.569 299.077 208.983 298.141C208.397 297.205 207.425 297.005 207.403 297.162Z" fill="#263238"/>
<path id="Vector_132" d="M204.866 301.072C205.009 301.122 205.338 300.357 205.044 299.399C204.751 298.441 204.03 297.97 203.944 298.127C203.858 298.284 204.265 298.791 204.494 299.556C204.723 300.321 204.673 301.036 204.866 301.072Z" fill="#263238"/>
<path id="Vector_133" d="M211.892 292.302C211.942 292.459 212.721 292.337 213.628 292.523C214.536 292.709 215.215 293.088 215.315 292.959C215.415 292.831 214.808 292.166 213.736 291.959C212.664 291.751 211.82 292.166 211.892 292.302Z" fill="#263238"/>
<path id="Vector_134" d="M212.292 288.835C212.819 289.061 213.398 289.135 213.964 289.05C214.577 289.022 215.184 288.921 215.773 288.749C216.123 288.643 216.466 288.517 216.802 288.371C217.001 288.29 217.187 288.179 217.352 288.042C217.474 287.941 217.559 287.803 217.594 287.649C217.629 287.496 217.612 287.335 217.545 287.191C217.479 287.067 217.385 286.959 217.269 286.879C217.154 286.798 217.02 286.746 216.881 286.727C216.67 286.694 216.455 286.694 216.245 286.727C215.879 286.766 215.518 286.838 215.165 286.941C214.568 287.119 214.003 287.391 213.493 287.749C212.628 288.356 212.285 288.928 212.335 288.971C212.385 289.014 212.842 288.571 213.707 288.092C214.209 287.811 214.745 287.595 215.301 287.449C215.63 287.367 215.964 287.312 216.302 287.284C216.666 287.234 216.966 287.284 217.016 287.441C217.066 287.599 217.016 287.534 216.959 287.627C216.833 287.721 216.696 287.8 216.552 287.863C216.242 288.008 215.924 288.136 215.601 288.249C215.05 288.433 214.483 288.567 213.907 288.649C213.365 288.675 212.826 288.737 212.292 288.835Z" fill="#263238"/>
<path id="Vector_135" d="M212.478 289.1C212.851 288.663 213.079 288.121 213.128 287.549C213.237 286.936 213.237 286.31 213.128 285.698C213.068 285.332 212.972 284.973 212.842 284.625C212.782 284.394 212.662 284.182 212.496 284.011C212.329 283.839 212.121 283.714 211.892 283.646C211.743 283.629 211.593 283.655 211.458 283.721C211.324 283.786 211.211 283.89 211.134 284.018C211.022 284.2 210.938 284.397 210.884 284.604C210.776 284.968 210.725 285.347 210.734 285.726C210.742 286.361 210.906 286.985 211.213 287.542C211.749 288.492 212.399 288.771 212.421 288.721C212.113 288.285 211.831 287.832 211.577 287.363C211.35 286.848 211.24 286.289 211.256 285.726C211.264 285.401 211.317 285.079 211.413 284.768C211.513 284.425 211.684 284.154 211.813 284.211C211.942 284.268 212.221 284.532 212.321 284.833C212.45 285.141 212.548 285.462 212.614 285.79C212.728 286.35 212.762 286.923 212.714 287.491C212.642 288.478 212.392 289.064 212.478 289.1Z" fill="#263238"/>
<path id="Vector_136" d="M229.396 283.267L230.997 272.368L213.214 271.503L212.685 282.381L229.396 283.267Z" fill="#FFBE9D"/>
<path id="Vector_137" d="M262.231 246.18L267.87 259.088C267.87 259.088 286.26 257.022 287.883 259.802L257.928 274.905L246.735 252.505L262.231 246.18Z" fill="#455A64"/>
<g id="Group_6" opacity="0.6">
<path id="Vector_138" opacity="0.6" d="M257.957 262.461C257.713 262.694 257.564 263.009 257.537 263.345C257.511 263.681 257.609 264.016 257.814 264.284C258.038 264.534 258.349 264.689 258.683 264.718C259.018 264.748 259.351 264.648 259.615 264.441C259.876 264.196 260.036 263.861 260.062 263.504C260.089 263.147 259.98 262.792 259.758 262.511C259.499 262.27 259.156 262.14 258.802 262.148C258.448 262.156 258.112 262.302 257.864 262.554" fill="white"/>
</g>
<g id="Group_7" opacity="0.6">
<path id="Vector_139" opacity="0.6" d="M257.928 274.898L256.784 272.425L285.932 258.845C285.932 258.845 287.554 258.752 287.883 259.767L257.928 274.898Z" fill="white"/>
</g>
<path id="Vector_140" d="M268.285 258.666C268.356 258.809 267.656 259.245 267.177 260.095C266.698 260.946 266.619 261.732 266.462 261.747C266.305 261.761 266.09 260.803 266.691 259.802C267.291 258.802 268.242 258.545 268.285 258.666Z" fill="#263238"/>
<path id="Vector_141" d="M272.073 258.409C272.18 258.53 271.672 259.123 271.487 259.967C271.301 260.81 271.487 261.568 271.337 261.632C271.186 261.696 270.679 260.917 270.929 259.845C271.179 258.773 272.001 258.266 272.073 258.409Z" fill="#263238"/>
<path id="Vector_142" d="M275.754 261.268C275.639 261.368 275.039 260.739 275.039 259.745C275.039 258.752 275.532 258.094 275.653 258.187C275.775 258.28 275.575 258.902 275.611 259.731C275.646 260.56 275.897 261.182 275.754 261.268Z" fill="#263238"/>
<path id="Vector_143" d="M266.233 255.292C266.233 255.457 265.469 255.593 264.668 256.064C263.868 256.536 263.36 257.129 263.239 257.036C263.117 256.943 263.46 256.122 264.404 255.571C265.347 255.021 266.248 255.142 266.233 255.292Z" fill="#263238"/>
<path id="Vector_144" d="M264.711 252.155C264.283 252.522 263.765 252.769 263.21 252.869C262.62 253.049 262.01 253.155 261.395 253.184C261.03 253.208 260.665 253.208 260.301 253.184C260.086 253.179 259.873 253.138 259.672 253.062C259.529 253.008 259.408 252.909 259.326 252.78C259.243 252.652 259.204 252.5 259.215 252.348C259.236 252.209 259.29 252.077 259.372 251.962C259.454 251.848 259.561 251.755 259.686 251.69C259.875 251.591 260.077 251.521 260.287 251.483C260.646 251.4 261.012 251.35 261.38 251.333C262.002 251.305 262.624 251.375 263.224 251.54C264.239 251.84 264.754 252.255 264.718 252.319C264.682 252.383 264.111 252.112 263.131 251.933C262.565 251.835 261.989 251.809 261.416 251.855C261.081 251.885 260.749 251.942 260.422 252.026C260.058 252.105 259.786 252.233 259.779 252.419C259.779 252.491 259.779 252.512 259.894 252.569C260.044 252.62 260.2 252.652 260.358 252.662C260.698 252.696 261.039 252.713 261.38 252.712C261.961 252.709 262.54 252.652 263.11 252.541C263.633 252.371 264.168 252.242 264.711 252.155Z" fill="#263238"/>
<path id="Vector_145" d="M264.632 252.455C264.597 252.505 264.039 252.126 263.51 251.211C263.203 250.668 262.993 250.075 262.888 249.46C262.822 249.097 262.795 248.728 262.81 248.359C262.789 248.12 262.83 247.88 262.931 247.662C263.031 247.444 263.186 247.255 263.382 247.116C263.517 247.052 263.667 247.029 263.815 247.048C263.963 247.067 264.103 247.128 264.218 247.223C264.387 247.356 264.534 247.515 264.654 247.695C265.236 248.526 265.47 249.552 265.304 250.554C265.111 251.626 264.59 252.112 264.547 252.069C264.697 251.555 264.816 251.032 264.904 250.504C264.945 249.945 264.865 249.384 264.668 248.86C264.552 248.555 264.395 248.266 264.204 248.002C263.996 247.709 263.746 247.516 263.646 247.602C263.548 247.701 263.472 247.82 263.424 247.95C263.376 248.081 263.357 248.221 263.367 248.359C263.35 248.693 263.362 249.028 263.403 249.36C263.48 249.927 263.636 250.481 263.868 251.004C264.268 251.926 264.711 252.398 264.632 252.455Z" fill="#263238"/>
<path id="Vector_146" d="M246.735 252.505L241.646 242.734L258.164 236.08L262.231 246.18L246.735 252.505Z" fill="#FFBE9D"/>
<path id="Vector_147" d="M211.234 229.255C211.234 229.255 204.487 228.004 203.308 225.645C202.128 223.286 208.132 197.055 215.33 181.717C223.192 164.885 239.631 169.945 243.555 175.871C250.452 186.256 261.23 237.91 261.23 237.91L242.139 245.057L222.591 198.242C222.591 198.242 218.875 196.176 215.523 198.714C212.17 201.251 211.234 229.255 211.234 229.255Z" fill="#263238"/>
<path id="Vector_148" d="M234.842 273.397C234.127 273.161 209.633 273.397 209.633 273.397L211.105 227.968L212.535 197.02L230.403 192.603L251.703 198.213C251.703 198.213 265.74 203.438 266.441 211.915C266.868 217.009 266.868 222.13 266.441 227.225C259.138 230.258 251.252 231.628 243.354 231.234L238.659 229.362L234.842 273.397Z" fill="#263238"/>
<path id="Vector_149" d="M251.667 198.213C251.728 198.338 251.773 198.47 251.803 198.606C251.881 198.907 251.989 199.278 252.117 199.743C252.382 200.779 252.746 202.202 253.196 203.938C254.09 207.512 255.262 212.415 256.541 217.847C257.821 223.279 259.014 228.204 259.886 231.756C260.315 233.5 260.658 234.922 260.916 235.966C261.023 236.43 261.109 236.816 261.18 237.117C261.221 237.249 261.242 237.386 261.244 237.524C261.188 237.4 261.143 237.27 261.109 237.138C261.016 236.838 260.908 236.466 260.773 236.002C260.494 235.022 260.108 233.593 259.636 231.82C258.693 228.282 257.492 223.372 256.177 217.933C254.862 212.494 253.775 207.612 252.939 204.003C252.539 202.259 252.224 200.822 251.974 199.779L251.731 198.621C251.69 198.489 251.669 198.352 251.667 198.213Z" fill="#455A64"/>
<path id="Vector_150" d="M211.105 247.037C211.094 246.945 211.094 246.851 211.105 246.758C211.105 246.554 211.105 246.275 211.105 245.922C211.105 245.165 211.105 244.085 211.105 242.706C211.105 239.918 211.105 235.887 211.148 230.898C211.191 225.909 211.291 219.97 211.534 213.38C211.684 210.085 211.813 206.626 212.249 203.045C212.41 201.198 212.945 199.404 213.821 197.77C214.307 196.927 215.024 196.24 215.887 195.79C216.776 195.364 217.781 195.243 218.746 195.447C219.702 195.656 220.597 196.081 221.362 196.691C222.101 197.297 222.733 198.022 223.235 198.835C224.152 200.436 224.936 202.109 225.579 203.838L229.546 213.394C232.069 219.477 234.342 224.966 236.25 229.576L240.739 240.497C241.253 241.777 241.661 242.777 241.939 243.478L242.247 244.257C242.284 244.343 242.315 244.431 242.34 244.521C242.286 244.444 242.243 244.36 242.211 244.271L241.875 243.506C241.575 242.792 241.16 241.82 240.603 240.555L235.978 229.648C234.049 225.045 231.754 219.57 229.203 213.494C227.93 210.45 226.601 207.267 225.214 203.946C224.574 202.25 223.8 200.608 222.899 199.035C222.421 198.257 221.817 197.564 221.112 196.984C220.395 196.407 219.553 196.008 218.653 195.819C217.763 195.618 216.831 195.724 216.009 196.119C215.209 196.541 214.545 197.181 214.093 197.963C213.243 199.556 212.722 201.304 212.564 203.102C212.12 206.64 211.992 210.107 211.849 213.394C211.584 219.977 211.47 225.917 211.384 230.898C211.298 235.88 211.256 239.897 211.22 242.706C211.22 244.085 211.184 245.165 211.177 245.922C211.177 246.272 211.177 246.551 211.177 246.758C211.163 246.854 211.139 246.947 211.105 247.037Z" fill="#455A64"/>
<path id="Vector_151" d="M258.214 95.9341C255.591 94.9263 252.625 97.1206 249.916 96.3844C248.272 95.9341 247.107 94.5046 245.685 93.5683C244.568 92.8476 243.299 92.3962 241.978 92.2498C240.657 92.1035 239.32 92.2661 238.073 92.7249C235.721 93.7184 234.17 94.8692 233.684 97.3422C231.704 96.0056 228.073 98.3571 226.715 100.78C225.357 103.203 225.465 105.783 225.936 108.549C226.754 113.272 228.49 117.789 231.047 121.843C231.275 122.201 231.647 122.608 232.04 122.451C232.312 122.351 232.426 122.029 232.49 121.736C233.062 119.306 232.934 116.776 232.905 114.281C232.876 111.787 232.948 109.221 233.906 106.92C234.863 104.618 236.865 102.588 239.338 102.288C241.194 102.16 243.035 102.695 244.534 103.796C246.07 104.818 247.393 106.119 248.822 107.256C250.226 108.469 251.933 109.277 253.761 109.593C255.591 109.807 257.621 109.085 258.528 107.449C259.436 105.812 258.721 103.41 256.949 102.903C257.79 102.889 258.599 102.583 259.24 102.038C259.88 101.492 260.31 100.741 260.457 99.9131C260.604 99.0851 260.458 98.2317 260.045 97.4993C259.632 96.7668 258.977 96.2009 258.192 95.8984L258.214 95.9341Z" fill="#263238"/>
<path id="Vector_152" d="M229.746 109.586L230.389 137.553C230.504 142.314 235.178 146.33 239.924 145.987C244.355 145.666 247.143 141.592 247.035 137.153C246.978 135.052 246.943 133.294 246.95 133.079C246.95 133.079 254.054 132.243 254.412 125.217C254.576 121.808 254.354 114.753 254.083 108.371C253.934 105.066 252.549 101.938 250.201 99.608C247.854 97.2776 244.716 95.9152 241.41 95.7912H240.731C233.37 95.8841 229.389 102.224 229.746 109.586Z" fill="#FFBE9D"/>
<path id="Vector_153" d="M246.971 132.979C243.706 132.917 240.534 131.885 237.858 130.013C237.858 130.013 239.845 135.18 246.914 134.809L246.971 132.979Z" fill="#EB996E"/>
<path id="Vector_154" d="M251.917 113.631C251.91 113.895 251.799 114.146 251.61 114.33C251.42 114.515 251.166 114.618 250.902 114.617C250.774 114.621 250.646 114.6 250.526 114.554C250.406 114.508 250.297 114.439 250.204 114.351C250.111 114.262 250.036 114.156 249.984 114.039C249.932 113.922 249.904 113.795 249.901 113.667C249.909 113.404 250.018 113.154 250.206 112.97C250.394 112.786 250.646 112.682 250.909 112.68C251.038 112.676 251.167 112.697 251.287 112.742C251.408 112.787 251.518 112.856 251.612 112.945C251.706 113.033 251.781 113.139 251.834 113.257C251.886 113.375 251.914 113.502 251.917 113.631Z" fill="#263238"/>
<path id="Vector_155" d="M252.432 111.744C252.303 111.873 251.56 111.28 250.473 111.244C249.387 111.208 248.572 111.716 248.458 111.58C248.343 111.444 248.544 111.287 248.894 111.044C249.378 110.739 249.944 110.589 250.516 110.615C251.08 110.635 251.623 110.832 252.067 111.179C252.396 111.43 252.496 111.694 252.432 111.744Z" fill="#263238"/>
<path id="Vector_156" d="M241.568 113.631C241.56 113.894 241.451 114.144 241.263 114.328C241.075 114.512 240.823 114.616 240.56 114.617C240.431 114.622 240.302 114.601 240.182 114.556C240.061 114.511 239.951 114.442 239.857 114.353C239.763 114.265 239.688 114.158 239.635 114.041C239.583 113.923 239.555 113.796 239.552 113.667C239.559 113.403 239.67 113.152 239.859 112.968C240.049 112.783 240.303 112.68 240.567 112.68C240.695 112.676 240.824 112.697 240.944 112.742C241.064 112.788 241.174 112.857 241.267 112.945C241.361 113.034 241.435 113.14 241.487 113.258C241.538 113.376 241.566 113.503 241.568 113.631Z" fill="#263238"/>
<path id="Vector_157" d="M241.753 111.551C241.625 111.68 240.881 111.087 239.795 111.044C238.709 111.001 237.894 111.523 237.787 111.387C237.679 111.251 237.865 111.094 238.223 110.851C238.705 110.548 239.268 110.396 239.838 110.415C240.403 110.435 240.946 110.636 241.389 110.987C241.718 111.251 241.839 111.494 241.753 111.551Z" fill="#263238"/>
<path id="Vector_158" d="M245.413 119.749C245.993 119.588 246.591 119.501 247.193 119.492C247.471 119.492 247.736 119.435 247.786 119.242C247.82 118.957 247.768 118.668 247.636 118.413L246.921 116.268C245.892 113.224 245.163 110.722 245.284 110.679C245.406 110.636 246.342 113.074 247.364 116.126C247.614 116.84 247.85 117.555 248.079 118.27C248.243 118.61 248.281 118.998 248.186 119.363C248.141 119.458 248.075 119.542 247.994 119.609C247.912 119.676 247.817 119.724 247.714 119.749C247.557 119.785 247.397 119.802 247.236 119.799C246.628 119.855 246.016 119.839 245.413 119.749Z" fill="#263238"/>
<path id="Vector_159" d="M242.175 120.378C242.347 120.378 242.311 121.55 243.283 122.43C244.255 123.309 245.52 123.216 245.527 123.38C245.534 123.545 245.234 123.602 244.705 123.595C244.016 123.585 243.353 123.332 242.833 122.88C242.336 122.44 242.028 121.826 241.975 121.164C241.954 120.657 242.089 120.371 242.175 120.378Z" fill="#263238"/>
<path id="Vector_160" d="M242.197 107.306C242.075 107.599 240.996 107.42 239.724 107.527C238.451 107.634 237.401 107.942 237.236 107.67C237.172 107.541 237.358 107.27 237.787 106.998C238.353 106.667 238.988 106.471 239.642 106.424C240.296 106.377 240.953 106.48 241.56 106.727C242.018 106.927 242.247 107.141 242.197 107.306Z" fill="#263238"/>
<path id="Vector_161" d="M252.153 108.571C251.953 108.807 251.209 108.528 250.316 108.478C249.423 108.428 248.651 108.585 248.479 108.321C248.408 108.192 248.536 107.949 248.879 107.727C249.337 107.464 249.863 107.342 250.389 107.378C250.916 107.414 251.42 107.605 251.838 107.927C252.146 108.213 252.239 108.471 252.153 108.571Z" fill="#263238"/>
<path id="Vector_162" d="M230.125 114.832C230.01 114.782 225.329 113.216 225.3 118.055C225.272 122.894 230.132 121.915 230.139 121.779C230.146 121.643 230.125 114.832 230.125 114.832Z" fill="#FFBE9D"/>
<path id="Vector_163" d="M228.674 119.935C228.674 119.935 228.588 119.999 228.445 120.064C228.242 120.141 228.018 120.141 227.816 120.064C227.505 119.865 227.253 119.586 227.086 119.257C226.919 118.927 226.843 118.56 226.865 118.191C226.854 117.775 226.937 117.362 227.108 116.983C227.155 116.833 227.237 116.696 227.348 116.584C227.458 116.472 227.595 116.388 227.745 116.34C227.841 116.316 227.944 116.326 228.034 116.369C228.124 116.412 228.196 116.485 228.238 116.576C228.302 116.712 228.238 116.804 228.295 116.812C228.352 116.819 228.402 116.733 228.366 116.533C228.337 116.414 228.269 116.309 228.173 116.233C228.108 116.182 228.034 116.144 227.954 116.122C227.874 116.1 227.791 116.094 227.709 116.104C227.514 116.139 227.331 116.223 227.177 116.348C227.023 116.473 226.904 116.635 226.83 116.819C226.617 117.236 226.513 117.701 226.529 118.17C226.497 118.6 226.596 119.031 226.813 119.405C227.03 119.778 227.355 120.078 227.745 120.264C227.875 120.301 228.011 120.308 228.145 120.286C228.278 120.264 228.405 120.212 228.516 120.135C228.667 120.057 228.695 119.949 228.674 119.935Z" fill="#EB996E"/>
<path id="Vector_164" d="M255.627 106.927C254.048 107.27 252.41 107.233 250.848 106.819C249.286 106.405 247.844 105.626 246.642 104.547C244.984 103.024 243.733 100.88 241.603 100.137C240.876 99.9151 240.112 99.8396 239.355 99.9144C238.598 99.9892 237.863 100.213 237.193 100.573C235.858 101.306 234.688 102.306 233.756 103.51C234.985 107.148 233.92 111.122 232.855 114.81C232.777 115.232 232.564 115.616 232.247 115.904C231.661 116.326 230.818 115.947 230.339 115.411C229.64 114.481 229.226 113.369 229.145 112.209C228.735 109.591 228.852 106.918 229.489 104.347C230.13 101.778 231.509 99.4522 233.455 97.6566C235.985 95.5142 239.245 94.4311 242.554 94.6333C245.856 94.8508 249.007 96.1009 251.56 98.207C252.79 99.1292 253.772 100.342 254.419 101.738" fill="#263238"/>
<path id="Vector_165" d="M260.172 97.7139C260.185 97.8546 260.166 97.9964 260.115 98.1284C259.984 98.5189 259.734 98.8587 259.4 99.1004C258.862 99.4677 258.222 99.6553 257.571 99.6365C257.169 99.644 256.769 99.6032 256.377 99.515C255.923 99.4253 255.503 99.2127 255.162 98.9003C254.971 98.7259 254.823 98.5105 254.727 98.2703C254.632 98.0301 254.593 97.7714 254.612 97.5137C254.66 97.234 254.786 96.9737 254.976 96.7625C255.165 96.5514 255.411 96.398 255.684 96.3201C255.964 96.2256 256.263 96.1987 256.556 96.2415C256.862 96.2927 257.146 96.4346 257.371 96.6489C257.597 96.8709 257.773 97.139 257.886 97.435C258 97.731 258.048 98.0479 258.028 98.3643C257.991 99.0318 257.693 99.658 257.199 100.108C256.694 100.567 256.078 100.885 255.412 101.03C254.014 101.298 252.566 101.087 251.302 100.43C250.055 99.8049 248.885 99.0374 247.814 98.1427C246.824 97.3277 245.767 96.5962 244.655 95.9556C243.649 95.3878 242.522 95.0692 241.367 95.0264C240.36 95.0184 239.364 95.2357 238.451 95.6626C237.126 96.2926 235.984 97.2524 235.135 98.45C234.898 98.7725 234.681 99.1091 234.485 99.4578C234.419 99.5806 234.348 99.6998 234.27 99.8152C234.27 99.8152 234.27 99.7795 234.306 99.7151C234.342 99.6508 234.377 99.5507 234.442 99.4292C234.627 99.0731 234.834 98.7293 235.063 98.4C235.893 97.1585 237.038 96.1596 238.38 95.5053C239.313 95.0592 240.333 94.8273 241.367 94.8263C242.556 94.8586 243.719 95.18 244.755 95.7626C245.882 96.4032 246.953 97.1372 247.957 97.9569C249.021 98.8355 250.179 99.593 251.41 100.215C252.625 100.844 254.016 101.051 255.362 100.802C255.989 100.669 256.57 100.37 257.042 99.9367C257.497 99.5301 257.772 98.9594 257.807 98.35C257.828 98.065 257.787 97.7788 257.687 97.5111C257.587 97.2433 257.43 97.0004 257.228 96.799C257.032 96.6183 256.79 96.4958 256.529 96.4453C256.267 96.3947 255.997 96.4182 255.748 96.5131C255.508 96.5747 255.292 96.7038 255.123 96.8849C254.955 97.0661 254.842 97.2917 254.797 97.5352C254.779 97.7657 254.813 97.9974 254.898 98.2128C254.982 98.4282 255.114 98.6218 255.283 98.7788C255.601 99.0733 255.99 99.2781 256.413 99.3721C256.793 99.4588 257.181 99.5019 257.571 99.5007C258.196 99.5313 258.816 99.3664 259.343 99.029C259.667 98.802 259.916 98.4834 260.058 98.1141C260.106 97.9837 260.144 97.8499 260.172 97.7139Z" fill="#455A64"/>
<path id="Vector_166" d="M225.7 104.904C226.163 105.093 226.641 105.239 227.13 105.34C227.675 105.411 228.229 105.375 228.76 105.233C229.407 105.055 230.025 104.785 230.596 104.432C231.636 103.775 232.43 102.792 232.855 101.638C233.016 101.152 233.142 100.655 233.234 100.151C233.258 100.291 233.258 100.433 233.234 100.573C233.201 100.952 233.125 101.326 233.005 101.688C232.608 102.908 231.796 103.95 230.711 104.633C230.12 105.004 229.473 105.279 228.795 105.447C228.239 105.588 227.659 105.61 227.094 105.512C226.715 105.442 226.348 105.314 226.008 105.133C225.894 105.073 225.79 104.996 225.7 104.904Z" fill="#455A64"/>
<path id="Vector_167" d="M225.779 108.406C225.779 108.363 226.351 108.506 227.259 108.492C228.448 108.469 229.611 108.136 230.632 107.527C231.643 106.903 232.472 106.023 233.034 104.976C233.47 104.175 233.598 103.61 233.641 103.625C233.638 103.761 233.614 103.896 233.57 104.025C233.477 104.38 233.347 104.725 233.184 105.054C232.646 106.159 231.802 107.087 230.754 107.727C229.7 108.362 228.488 108.686 227.259 108.664C226.89 108.657 226.524 108.611 226.165 108.528C226.031 108.508 225.9 108.467 225.779 108.406Z" fill="#455A64"/>
<path id="Vector_168" d="M237.98 116.033C237.946 116.035 237.912 116.024 237.886 116.003C237.86 115.982 237.842 115.952 237.837 115.918C237.834 115.902 237.834 115.886 237.837 115.87C237.841 115.854 237.847 115.839 237.856 115.826C237.866 115.812 237.878 115.801 237.891 115.792C237.905 115.784 237.921 115.778 237.937 115.775C237.953 115.772 237.969 115.773 237.985 115.776C238.001 115.78 238.016 115.788 238.029 115.798C238.042 115.808 238.053 115.821 238.06 115.835C238.068 115.85 238.072 115.866 238.073 115.882C238.079 115.915 238.073 115.948 238.056 115.976C238.039 116.004 238.011 116.024 237.98 116.033Z" fill="#EB996E"/>
<path id="Vector_169" d="M240.067 115.639C240.031 115.64 239.997 115.627 239.97 115.603C239.944 115.579 239.927 115.546 239.924 115.511C239.917 115.475 239.923 115.438 239.941 115.406C239.96 115.375 239.989 115.351 240.024 115.339C240.058 115.344 240.09 115.359 240.114 115.383C240.139 115.407 240.155 115.439 240.16 115.473C240.165 115.507 240.158 115.542 240.141 115.572C240.124 115.602 240.098 115.626 240.067 115.639Z" fill="#EB996E"/>
<path id="Vector_170" d="M241.468 115.654C241.403 115.654 241.339 115.575 241.332 115.468C241.325 115.361 241.332 115.268 241.432 115.268C241.532 115.268 241.56 115.339 241.568 115.446C241.575 115.554 241.532 115.647 241.468 115.654Z" fill="#EB996E"/>
<path id="Vector_171" d="M238.98 117.369C238.909 117.369 238.859 117.333 238.859 117.291C238.859 117.248 238.916 117.212 238.98 117.219C239.045 117.226 239.102 117.255 239.102 117.298C239.102 117.341 239.016 117.376 238.98 117.369Z" fill="#EB996E"/>
<path id="Vector_172" d="M240.867 116.997C240.833 116.997 240.8 116.984 240.776 116.96C240.752 116.936 240.739 116.903 240.739 116.869C240.739 116.853 240.742 116.837 240.748 116.822C240.754 116.808 240.763 116.794 240.774 116.783C240.785 116.772 240.799 116.763 240.814 116.757C240.828 116.75 240.844 116.747 240.86 116.747C240.876 116.747 240.892 116.75 240.907 116.757C240.921 116.763 240.935 116.772 240.946 116.783C240.957 116.794 240.966 116.808 240.972 116.822C240.978 116.837 240.982 116.853 240.982 116.869C240.982 116.901 240.97 116.931 240.949 116.955C240.928 116.979 240.899 116.994 240.867 116.997Z" fill="#EB996E"/>
<path id="Vector_173" d="M250.809 116.19C250.775 116.192 250.742 116.182 250.716 116.16C250.689 116.139 250.672 116.109 250.666 116.076C250.661 116.042 250.669 116.007 250.687 115.978C250.705 115.949 250.734 115.928 250.766 115.918C250.799 115.916 250.832 115.927 250.857 115.948C250.882 115.97 250.899 116 250.902 116.033C250.906 116.049 250.907 116.066 250.905 116.083C250.903 116.1 250.897 116.116 250.888 116.131C250.88 116.145 250.868 116.158 250.855 116.168C250.841 116.178 250.826 116.186 250.809 116.19Z" fill="#EB996E"/>
<path id="Vector_174" d="M252.224 116.111C252.16 116.111 252.103 116.054 252.096 115.968C252.089 115.882 252.146 115.811 252.21 115.811C252.274 115.811 252.332 115.868 252.339 115.954C252.346 116.04 252.296 116.111 252.224 116.111Z" fill="#EB996E"/>
<path id="Vector_175" d="M249.558 116.176C249.544 116.181 249.528 116.184 249.512 116.182C249.496 116.181 249.481 116.176 249.467 116.169C249.453 116.161 249.441 116.15 249.432 116.137C249.423 116.124 249.417 116.109 249.414 116.094C249.412 116.078 249.413 116.062 249.417 116.047C249.421 116.031 249.429 116.017 249.439 116.005C249.449 115.993 249.462 115.984 249.477 115.977C249.491 115.971 249.507 115.968 249.523 115.968C249.552 115.962 249.583 115.967 249.608 115.983C249.634 115.999 249.652 116.025 249.659 116.054C249.661 116.069 249.659 116.084 249.655 116.098C249.651 116.112 249.644 116.125 249.635 116.137C249.626 116.148 249.614 116.157 249.601 116.164C249.588 116.171 249.573 116.175 249.558 116.176Z" fill="#EB996E"/>
<path id="Vector_176" d="M250.552 117.626C250.536 117.632 250.52 117.634 250.504 117.633C250.487 117.632 250.471 117.628 250.457 117.621C250.442 117.613 250.429 117.603 250.418 117.591C250.408 117.578 250.4 117.564 250.395 117.548C250.386 117.533 250.38 117.516 250.378 117.499C250.376 117.481 250.377 117.464 250.383 117.447C250.388 117.43 250.397 117.415 250.409 117.402C250.421 117.389 250.435 117.379 250.451 117.372C250.468 117.366 250.485 117.363 250.502 117.363C250.52 117.364 250.537 117.368 250.553 117.376C250.568 117.384 250.582 117.395 250.593 117.408C250.604 117.422 250.612 117.438 250.616 117.455C250.623 117.47 250.627 117.487 250.628 117.504C250.629 117.521 250.626 117.538 250.62 117.554C250.614 117.57 250.605 117.585 250.593 117.597C250.582 117.61 250.568 117.619 250.552 117.626Z" fill="#EB996E"/>
<path id="Vector_177" d="M251.767 117.433C251.739 117.425 251.715 117.406 251.701 117.381C251.686 117.356 251.682 117.326 251.688 117.298C251.694 117.284 251.702 117.272 251.712 117.262C251.722 117.252 251.734 117.244 251.748 117.239C251.761 117.233 251.775 117.231 251.79 117.231C251.804 117.231 251.818 117.235 251.831 117.241C251.861 117.247 251.886 117.265 251.902 117.291C251.918 117.316 251.923 117.347 251.917 117.376C251.903 117.402 251.88 117.423 251.853 117.433C251.825 117.444 251.795 117.444 251.767 117.433Z" fill="#EB996E"/>
<path id="Vector_178" d="M226.694 121.179C226.565 121.526 226.506 121.895 226.522 122.265C226.551 122.659 226.724 123.028 227.008 123.302C227.175 123.466 227.379 123.588 227.604 123.655C227.828 123.722 228.065 123.733 228.295 123.687C228.523 123.636 228.733 123.526 228.905 123.368C229.076 123.21 229.204 123.009 229.274 122.787C229.35 122.403 229.294 122.006 229.117 121.658C228.966 121.315 228.733 121.016 228.438 120.786C228.438 120.743 228.924 120.914 229.267 121.579C229.491 121.96 229.57 122.409 229.489 122.844C229.413 123.109 229.267 123.349 229.067 123.539C228.868 123.728 228.621 123.861 228.352 123.923C228.084 123.978 227.807 123.964 227.546 123.883C227.284 123.802 227.048 123.656 226.858 123.459C226.542 123.147 226.359 122.724 226.351 122.279C226.342 121.99 226.398 121.701 226.515 121.436C226.608 121.257 226.68 121.172 226.694 121.179Z" fill="#263238"/>
<path id="Vector_179" d="M226.737 120.357C226.737 120.357 226.916 120.428 226.994 120.7C227.037 120.862 227.022 121.034 226.951 121.186C226.906 121.281 226.84 121.365 226.759 121.432C226.677 121.498 226.582 121.546 226.48 121.572C226.375 121.594 226.266 121.591 226.163 121.562C226.059 121.534 225.965 121.481 225.886 121.407C225.822 121.347 225.774 121.272 225.747 121.188C225.72 121.104 225.713 121.015 225.729 120.929C225.779 120.636 225.986 120.564 225.986 120.593C225.986 120.621 225.893 120.728 225.893 120.943C225.893 121 225.905 121.057 225.93 121.109C225.955 121.162 225.991 121.207 226.036 121.243C226.09 121.288 226.154 121.32 226.222 121.337C226.29 121.355 226.361 121.357 226.43 121.343C226.569 121.304 226.687 121.211 226.758 121.086C226.815 120.976 226.84 120.852 226.83 120.728C226.83 120.507 226.708 120.385 226.737 120.357Z" fill="#263238"/>
<path id="Vector_180" d="M207.11 200.772C205.824 198.07 201.585 191.945 201.585 191.945C197.518 191.738 196.153 192.989 194.488 195.347C194.488 195.347 194.917 203.317 194.917 203.51C194.917 203.703 196.389 211.493 196.389 211.493C196.485 211.796 196.658 212.07 196.891 212.286C197.124 212.503 197.409 212.656 197.718 212.73C198.805 213.016 197.454 206.183 197.454 206.183L199.162 210.814L199.126 211.15C199.126 211.15 199.184 214.724 199.663 215.481C199.785 215.734 199.983 215.943 200.228 216.078C200.474 216.214 200.756 216.27 201.035 216.239C201.264 216.239 201.314 213.473 201.464 210.971L200.799 206.94L202.414 210.786C202.414 210.786 202.178 214.967 202.629 215.925C203.079 216.882 204.516 216.897 204.516 216.368C204.516 215.839 204.58 213.995 204.651 212.322C204.621 210.71 204.471 209.102 204.201 207.512L205.438 211.436L205.924 215.053C206.21 215.238 207.139 215.689 207.396 215.103C207.582 213.939 207.692 212.764 207.725 211.586C207.675 210.543 207.253 207.605 207.253 207.605C207.783 208.362 208.55 208.921 209.433 209.192C210.762 209.492 210.955 208.934 210.955 208.934L207.11 200.772Z" fill="#FFBE9D"/>
<path id="Vector_181" d="M206.431 204.153C206.919 205.38 207.26 206.662 207.446 207.97C207.748 209.253 207.899 210.568 207.896 211.886C207.532 210.623 207.257 209.336 207.074 208.034C206.771 206.756 206.556 205.46 206.431 204.153Z" fill="#EB996E"/>
<path id="Vector_182" d="M204.673 194.754C204.508 194.605 204.364 194.434 204.244 194.247C203.895 193.773 203.497 193.337 203.057 192.946C202.412 192.375 201.589 192.044 200.727 192.009C199.671 191.974 198.627 192.242 197.718 192.781C195.999 193.702 194.583 195.102 193.644 196.812C193.322 197.551 193.14 198.344 193.108 199.15C193.031 198.94 193.001 198.715 193.022 198.492C193.033 197.879 193.164 197.275 193.408 196.712C194.301 194.887 195.744 193.388 197.532 192.424C198.505 191.853 199.623 191.579 200.749 191.638C201.679 191.693 202.56 192.075 203.236 192.717C203.672 193.143 204.051 193.624 204.365 194.146C204.501 194.33 204.605 194.536 204.673 194.754Z" fill="#263238"/>
</g>
</g>
</svg>
